<svg xmlns="http://www.w3.org/2000/svg" width="1921" height="700.157" viewBox="0 0 1921 700.157">
  <path id="Subtraction_3" data-name="Subtraction 3" d="M5036.8-2362.343a194.592,194.592,0,0,1-24.37-1.573,227.025,227.025,0,0,1-23.775-4.355c-7.474-1.773-15.209-3.987-22.994-6.578-7.139-2.377-14.548-5.151-22.02-8.244-28.65-11.867-54.1-26.642-74.548-38.514l-.006,0c-16.217-9.415-29.026-16.851-37.738-19.559-1.823-.566-3.783-1.19-6.353-2.012l-.158-.051h-.005c-24.656-7.876-75.96-24.265-128.3-24.265a220.064,220.064,0,0,0-29.146,1.861,169.458,169.458,0,0,0-28.36,6.229,135.661,135.661,0,0,0-26.58,11.562,120.94,120.94,0,0,0-23.812,17.855,111.154,111.154,0,0,1-15.555,12.413,148.794,148.794,0,0,1-18.805,10.539,204.1,204.1,0,0,1-21.838,8.731c-7.667,2.584-15.961,4.937-24.651,6.994-33.477,7.916-74.635,11.929-122.333,11.931-43.708,0-92.76-3.356-145.792-9.98-50.51-6.308-103.972-15.484-158.9-27.272-41.948-9-78.972-17.845-113.188-27.03-28.763-7.723-49.906-14.2-65.344-18.936l-.062-.019h-.007c-22.628-6.937-35.093-10.758-45.795-10.758-7.818,0-14.933,1.948-26.25,7.187-6.092,2.82-14.284,7.324-24.657,13.026l0,0-.047.026-.028.016c-21.45,11.791-50.822,27.937-83.76,41.169-8.642,3.469-17.15,6.583-25.288,9.255-8.925,2.93-17.736,5.441-26.186,7.464a261.858,261.858,0,0,1-26.66,4.983,206.45,206.45,0,0,1-26.719,1.813,167.941,167.941,0,0,1-22.966-1.535,144.405,144.405,0,0,1-22.412-4.909,132.283,132.283,0,0,1-21.582-8.735,132.519,132.519,0,0,1-20.477-13.019c-31.5-24.319-66.313-36.651-103.46-36.651a180.568,180.568,0,0,0-41.683,5.019A209.853,209.853,0,0,0,3350-2436.893V-3062.5H5271v643.585c-12.957,3.709-26.069,7.42-38.976,11.029-40.731,11.387-100.8,27.732-155.671,40.939a164.962,164.962,0,0,1-19.859,3.5A174.612,174.612,0,0,1,5036.8-2362.343Z" transform="translate(-3350 3062.5)" fill="#f7f7f7"/>
</svg>
