<svg id="Group_2" data-name="Group 2" xmlns="http://www.w3.org/2000/svg" xmlns:xlink="http://www.w3.org/1999/xlink" width="935.9" height="376.262" viewBox="0 0 935.9 376.262">
  <defs>
    <clipPath id="clip-path">
      <path id="Path_29" data-name="Path 29" d="M0,0H935.9V376.262H0Z" transform="translate(0 0)" fill="none"/>
    </clipPath>
  </defs>
  <g id="Mask_Group_1" data-name="Mask Group 1" transform="translate(0 0)" clip-path="url(#clip-path)">
    <path id="Path_1" data-name="Path 1" d="M87.351,202.361A93.952,93.952,0,0,1,52.5,196.04,81.389,81.389,0,0,1,6.561,151.3a90.787,90.787,0,0,1,0-67.774A81.326,81.326,0,0,1,24.942,56.547a83.678,83.678,0,0,1,27.8-17.769,98.97,98.97,0,0,1,68.969-.239,68.732,68.732,0,0,1,26.9,18.247L137.386,68.009a62.247,62.247,0,0,0-22.6-15.154,78.9,78.9,0,0,0-54.653.478A66.778,66.778,0,0,0,37.721,67.889,68.561,68.561,0,0,0,22.776,89.843a73.5,73.5,0,0,0,0,55.132,68.394,68.394,0,0,0,14.944,21.953,66.515,66.515,0,0,0,22.416,14.556,74.812,74.812,0,0,0,27.932,5.126,73.834,73.834,0,0,0,26.721-4.768,63.362,63.362,0,0,0,22.671-15.273l11.224,11.224a69.908,69.908,0,0,1-26.9,18.368,94.158,94.158,0,0,1-34.432,6.2" transform="translate(80.952 26.279)" fill="#00c2d1"/>
    <path id="Path_2" data-name="Path 2" d="M292.733,202.374a94.931,94.931,0,0,1-34.971-6.322,82.2,82.2,0,0,1-46.328-44.834,90.177,90.177,0,0,1,0-67.534,82.511,82.511,0,0,1,46.179-44.834,99.847,99.847,0,0,1,69.926,0,83.479,83.479,0,0,1,27.8,17.769,81.319,81.319,0,0,1,18.382,26.975,90.788,90.788,0,0,1,0,67.774,81.311,81.311,0,0,1-18.382,26.975,83.688,83.688,0,0,1-27.8,17.769,93.875,93.875,0,0,1-34.806,6.262m0-15.751a73.858,73.858,0,0,0,27.8-5.126,65.674,65.674,0,0,0,22.193-14.556A67.5,67.5,0,0,0,357.4,144.987a74.857,74.857,0,0,0,0-55.131A67.654,67.654,0,0,0,342.723,67.9,65.893,65.893,0,0,0,320.56,53.347a73.879,73.879,0,0,0-27.8-5.125,74.793,74.793,0,0,0-27.931,5.125A66.611,66.611,0,0,0,227.6,89.856a74.722,74.722,0,0,0,0,55.011A66.324,66.324,0,0,0,264.831,181.5a74.791,74.791,0,0,0,27.9,5.126" transform="translate(44.057 26.266)" fill="#00c2d1"/>
    <path id="Path_3" data-name="Path 3" d="M442.2,201.254V34.188h68q26.721,0,46.9,10.626a78.066,78.066,0,0,1,31.384,29.47q11.208,18.86,11.208,43.445t-11.208,43.429a78.068,78.068,0,0,1-31.384,29.471q-20.175,10.625-46.9,10.625Zm17.65-15.273h49.407q22.193,0,38.542-8.712A63.433,63.433,0,0,0,573.2,153.162a68.434,68.434,0,0,0,9.071-35.433q0-20.3-9.071-35.569A63.74,63.74,0,0,0,547.8,58.174q-16.365-8.7-38.542-8.713H459.835Z" transform="translate(1.317 25.967)" fill="#00c2d1"/>
    <path id="Path_4" data-name="Path 4" d="M675.279,185.98H775.752v15.273H657.69V34.188H772.121V49.461H675.279ZM673.366,108.9h88.293V123.93H673.352Z" transform="translate(-37.491 25.967)" fill="#00c2d1"/>
    <path id="Path_5" data-name="Path 5" d="M364.823,32.365a7.97,7.97,0,0,1-3.708-.916A132.417,132.417,0,0,0,298.3,16.371,8,8,0,1,1,298.115.364a148.537,148.537,0,0,1,70.43,16.9,8.006,8.006,0,0,1-3.722,15.1" transform="translate(28.69 32.06)" fill="#00c2d1"/>
    <path id="Path_6" data-name="Path 6" d="M31.022,33.393a8.006,8.006,0,0,1-3.87-15.017A148.537,148.537,0,0,1,97.219,0H97.3a8,8,0,0,1,.074,16.009A132.478,132.478,0,0,0,34.877,32.4a7.958,7.958,0,0,1-3.855,1" transform="translate(76.809 32.124)" fill="#00c2d1"/>
    <path id="Path_7" data-name="Path 7" d="M92.47,75.09a51.44,51.44,0,1,1-51.44,51.44A51.44,51.44,0,0,1,92.47,75.09" transform="translate(73.563 18.601)" fill="#0a1045"/>
    <path id="Path_8" data-name="Path 8" d="M93.722,123.337a23.747,23.747,0,1,1-23.747,23.747,23.746,23.746,0,0,1,23.747-23.747" transform="translate(68.351 9.912)" fill="#fff"/>
    <path id="Path_9" data-name="Path 9" d="M130.106,94.41a11.866,11.866,0,1,1-11.866,11.866A11.865,11.865,0,0,1,130.106,94.41" transform="translate(59.659 15.122)" fill="#00c2d1"/>
    <path id="Path_10" data-name="Path 10" d="M294.845,77.477a51.44,51.44,0,1,1-51.44,51.439,51.44,51.44,0,0,1,51.44-51.439" transform="translate(37.118 18.171)" fill="#0a1045"/>
    <path id="Path_11" data-name="Path 11" d="M296.116,125.725a23.747,23.747,0,1,1-23.748,23.747,23.747,23.747,0,0,1,23.748-23.747" transform="translate(31.902 9.482)" fill="#fff"/>
    <path id="Path_12" data-name="Path 12" d="M332.5,96.78a11.866,11.866,0,1,1-11.866,11.866A11.865,11.865,0,0,1,332.5,96.78" transform="translate(23.209 14.695)" fill="#00c2d1"/>
    <path id="Path_13" data-name="Path 13" d="M513.161,203.88l6.979,106.765,1.943,30.143c.224,3.5,2.989,6.889,6.725,6.725,3.452-.149,6.965-2.989,6.725-6.725l-6.89-106.779-1.957-30.128c-.225-3.512-2.989-6.9-6.726-6.725-3.437.149-6.964,2.989-6.725,6.725Z" transform="translate(-11.463 -3.381)" fill="#0a1045"/>
    <path id="Path_14" data-name="Path 14" d="M577.656,231.344l-51.2,70.12c-2.078,2.854-.583,7.621,2.406,9.205a6.918,6.918,0,0,0,9.206-2.406l51.215-70.135c2.077-2.854.568-7.622-2.421-9.206a6.935,6.935,0,0,0-9.206,2.421" transform="translate(-13.683 -8.95)" fill="#0a1045"/>
    <path id="Path_15" data-name="Path 15" d="M567.944,355.79,536.2,312.585c-2.078-2.825-5.978-4.483-9.191-2.406-2.81,1.808-4.648,6.172-2.421,9.206l31.8,43.19c2.078,2.839,5.978,4.483,9.191,2.421,2.81-1.809,4.648-6.172,2.421-9.206Z" transform="translate(-13.343 -23.568)" fill="#0a1045"/>
    <path id="Path_16" data-name="Path 16" d="M599.224,300.559l-1.27,39.618a6.783,6.783,0,0,0,6.725,6.725,6.874,6.874,0,0,0,6.725-6.725l1.27-39.618a6.783,6.783,0,0,0-6.725-6.725,6.874,6.874,0,0,0-6.725,6.725" transform="translate(-26.733 -20.793)" fill="#0a1045"/>
    <path id="Path_17" data-name="Path 17" d="M607.218,285.894a6.725,6.725,0,1,0-6.725-6.725,6.8,6.8,0,0,0,6.725,6.725" transform="translate(-27.19 -16.941)" fill="#00c2d1"/>
    <path id="Path_18" data-name="Path 18" d="M654.9,266.128l1.21,69.7a6.725,6.725,0,1,0,13.45,0l-1.211-69.7a6.724,6.724,0,1,0-13.449,0" transform="translate(-36.988 -14.592)" fill="#0a1045"/>
    <path id="Path_19" data-name="Path 19" d="M652.011,313.682a57.081,57.081,0,0,1,8.174-4.349c-1.269.538,1.046-.389,1.27-.478l1.749-.613q2.242-.739,4.484-1.3c1.495-.374,2.989-.673,4.484-.926.15,0,2.152-.269.673-.1l2.451-.254a58.253,58.253,0,0,1,9.28,0,6.74,6.74,0,0,0,6.726-6.725,6.9,6.9,0,0,0-6.726-6.725,64.4,64.4,0,0,0-39.38,9.818,6.725,6.725,0,0,0,6.626,11.706l.16-.094Z" transform="translate(-34.626 -20.466)" fill="#0a1045"/>
    <path id="Path_20" data-name="Path 20" d="M738.336,301.278c-7.054-.374-14.556-.105-21.191,2.585-6.261,2.556-12.135,6.755-15.244,12.928a22.312,22.312,0,0,0-.269,19.98c3.183,6.621,10.282,10.267,17.44,10.282,8.294,0,15.3-4.483,21.76-9.131,2.825-2.078,4.483-5.978,2.407-9.206-1.809-2.794-6.158-4.633-9.206-2.406a78.265,78.265,0,0,1-6.815,4.647c-.628.374-1.27.717-1.928,1.046l-.733.359c-.194.089-1.27.522-.448.209s-.1,0-.21,0l-1,.343c-.628.194-1.27.358-1.913.493a5.008,5.008,0,0,1-.986.165c.164,0,1.584-.105.314-.075h-2.72c-.762,0,.538,0,.568.089a12.383,12.383,0,0,0-2.107-.552c-.732-.165.464.134.478.224s-.748-.373-.867-.433-1.689-1.077-.837-.508-.329-.4-.538-.612c-.837-.792.269.239.254.4,0-.165-.508-.718-.6-.867s-.568-1.271-.7-1.286c.089,0,.583,1.6.194.449a2.418,2.418,0,0,0-.194-.612c-.149-.463-.255-.957-.374-1.495-.283-1.121.09.374,0,.523a3.7,3.7,0,0,0-.089-1.061,12.212,12.212,0,0,1,0-1.495,5.111,5.111,0,0,0,0-.867c.074.1-.314,1.7,0,.523.1-.494.209-.972.343-1.495l.209-.612c.4-1.331-.493.881,0,.134.254-.479.479-.972.762-1.495s.926-1.106,1.016-1.495c0,0-.822.972-.329.448.225-.224.4-.463.613-.7s.867-.9,1.33-1.315.493-.4.717-.612c.538-.493-.389.329-.434.329.389,0,1.2-.837,1.495-1.061,1.046-.658,2.376-1.046,3.347-1.764,0,0-1.211.448-.523.239l1.21-.434c.717-.239,1.495-.448,2.182-.627s1.674-.389,2.511-.523a5.277,5.277,0,0,1,.852-.149h.194a63.909,63.909,0,0,1,10.013-.12,6.755,6.755,0,0,0,6.725-6.725,6.86,6.86,0,0,0-6.725-6.726Z" transform="translate(-45.003 -22.109)" fill="#0a1045"/>
    <path id="Path_21" data-name="Path 21" d="M770.034,247.912l-4.483,83c-.4,7.547,11.507,9.176,13.211,1.794a131.918,131.918,0,0,1,5.141-17.127q.717-1.9,1.494-3.766c.3-.718,0-.089,0,0l.538-1.24.972-2.152q1.839-3.989,3.945-7.846a32.917,32.917,0,0,1,1.928-3.183c-.657.926,0,.1.359-.284s.777-.493.12-.12c-.971.538.972-.254-.18.1s.957.134-.239.12a8.07,8.07,0,0,1-1.21,0c1.15.194-.9-.508.089.105-.926-.568-.463-.254,0,.269,0,0-.613-.972-.3-.344.194.389.463.732.672,1.121s.463.926.687,1.4c-.6-1.285,0,.089.179.628.553,1.494,1.061,2.989,1.495,4.6a75.9,75.9,0,0,1,2.047,8.742c.164.9.314,1.809.434,2.735-.134-1.016.1.972.135,1.3.164,1.719.283,3.437.343,5.17a82.726,82.726,0,0,1-.314,10.357c-.329,3.512,3.317,6.874,6.725,6.725a6.92,6.92,0,0,0,6.726-6.725,87.731,87.731,0,0,0-.9-22.118,80.629,80.629,0,0,0-2.436-10.461,44.587,44.587,0,0,0-3.8-9.64,14.1,14.1,0,0,0-8.563-6.9,12.286,12.286,0,0,0-11.7,3.811,36.264,36.264,0,0,0-5.455,8.488q-2.316,4.483-4.274,9.176a140.607,140.607,0,0,0-7.7,23.448l13.211,1.778,4.483-83a6.785,6.785,0,0,0-6.725-6.726,6.875,6.875,0,0,0-6.725,6.726Z" transform="translate(-56.914 -11.306)" fill="#0a1045"/>
    <path id="Path_22" data-name="Path 22" d="M849.833,326.143c5.156-.717,10.118-1.988,14.063-5.6a14.2,14.2,0,0,0,4.3-13.958c-2.556-9.221-13.883-13-22.252-9.819-17.769,6.74-22.641,32.624-9.8,46.164,6.859,7.233,18.7,9.43,27.349,4.185a6.729,6.729,0,0,0-6.8-11.612c-.433.269-2.182.912-.658.463-.567.165-1.105.374-1.688.508-1.66.389,1,0-.7.1h-2.032c-.956,0,1.2.269.269,0a3.946,3.946,0,0,1-1.016-.21c-.583-.135-1.152-.329-1.719-.508-1.166-.374,0,0,.164.074l-.927-.463c-.612-.329-1.166-.733-1.749-1.091,1.271.777-.239-.224-.612-.6s-1.495-1.823-.732-.717c-.374-.538-.732-1.076-1.061-1.644-.194-.329-.374-.658-.538-1s-.538-1.495-.119-.194c-.4-1.255-.777-2.5-1.061-3.8s0-.179,0,.09c0-.374-.074-.763-.1-1.136v-2.57a18,18,0,0,1,.15-2c-.15,1.584.164-.688.238-1.031.15-.627.314-1.241.508-1.853.1-.344.224-.687.344-1.031.239-.642.448-.986,0-.149a25.991,25.991,0,0,1,2.033-3.557l.478-.672c-.821,1.09-.238.314,0,.1.553-.582,1.091-1.165,1.689-1.7.164-.15,1.076-.808.358-.314s0,0,.165-.09l1.823-1.046c-.209.12-1.315.449-.149.075.329-.1.658-.225,1-.314s.538-.1.776-.194c.792-.269-1.284,0,0,0h.957c.986-.075-.18-.194-.358-.1.269-.134,1.375.329,1.628.4s1.032.6.314.09-.1,0,0,0a6.15,6.15,0,0,1,.807.493c-.673-.553-.821-.672-.448-.344a3.211,3.211,0,0,1,.329.3c.179.164.926.867.224.164s.344.329.194.419-.538-1.629-.194-.374,0-1.061,0-.225.134-.463.134-.493a4.5,4.5,0,0,1-.194.777c-.149.463-.09.344.179-.374a4.083,4.083,0,0,0-.418.688c-.284.6.747-.658-.135.119-.269.24-.523.508-.807.748.718-.583.344-.3-.225,0a8.646,8.646,0,0,1-.821.433c1.076-.508-.748.209-.837.239a40.969,40.969,0,0,1-5.844,1.091c-3.5.479-5.708,5.126-4.692,8.279,1.24,3.841,4.483,5.2,8.28,4.693Z" transform="translate(-68.327 -21.12)" fill="#0a1045"/>
    <path id="Path_23" data-name="Path 23" d="M898.665,306.313l.1,41.277h13.45a68,68,0,0,1-.149-8.189,34.619,34.619,0,0,1,.313-3.916,3.113,3.113,0,0,1,.1-.971c0,.135-.149.956,0,.164s.24-1.495.389-2.256a63.583,63.583,0,0,1,2-7.936c.4-1.24.837-2.481,1.315-3.691l.359-.912c0,.135-.359.808,0,.105s.628-1.4.956-2.093a34.782,34.782,0,0,1,1.749-3.3c.24-.374,1.046-1.36.314-.538.448-.508.971-.957,1.4-1.495s-.837.389,0,0a4.719,4.719,0,0,0,.7-.4s-1.135.448-.418.224-.493,0-.553,0-1.331-.254-.553,0-.373-.134-.433-.164-.987-.852-.464-.329-.881-.777-.208-.269a1.964,1.964,0,0,1,.328.627s-.284-1.241-.24-.463a10.524,10.524,0,0,0,.359,1.495,3.654,3.654,0,0,0,.134.747s-.09-1.315,0-.538.12,1.495.195,2.2l.777,9.176,1.763,20.922c.3,3.5,2.884,6.9,6.725,6.725,3.392-.149,7.039-2.988,6.724-6.725l-1.868-22.014c-.3-3.5-.508-7.023-.9-10.461a18.4,18.4,0,0,0-3.228-9.624,11.465,11.465,0,0,0-11.567-4.274,15.87,15.87,0,0,0-8.967,6.322c-4.095,5.291-6.561,12.27-8.234,18.681a70.255,70.255,0,0,0-2.123,23.224c.27,3.5,2.9,6.89,6.726,6.725a6.86,6.86,0,0,0,6.725-6.725l-.1-41.277a6.725,6.725,0,0,0-13.45,0Z" transform="translate(-80.888 -21.749)" fill="#0a1045"/>
  </g>
</svg>
