<svg xmlns="http://www.w3.org/2000/svg" width="254.812" height="406.113" viewBox="0 0 254.812 406.113">
  <path id="Subtraction_7" data-name="Subtraction 7" d="M6440.9-2777.022a36.233,36.233,0,0,1-14.941-3.1,54.4,54.4,0,0,1-15.434-10.851c-10.839-10.37-23.083-27.584-38.53-54.175-15.911-27.388-20.583-47.849-14.284-62.553a31.925,31.925,0,0,1,4.132-6.989,38.046,38.046,0,0,1,5.745-5.884,62.94,62.94,0,0,1,15.439-9.093,152.7,152.7,0,0,1,19.238-6.594c6.849-1.924,14.18-3.679,21.269-5.377,17.116-4.1,34.815-8.337,48.59-15.51,7.427-3.867,13.1-8.235,17.342-13.353a38.774,38.774,0,0,0,5.616-9.032,41.114,41.114,0,0,0,3.078-10.966,247.209,247.209,0,0,0,1.957-38.784c-.241-13.056-1.146-26.149-2.022-38.812-1.78-25.722-3.461-50.018.714-69.7,2.232-10.518,5.952-18.923,11.371-25.693a47.649,47.649,0,0,1,10.326-9.546,58.931,58.931,0,0,1,14.138-6.961,52.924,52.924,0,0,1,17.045-3.138,36.8,36.8,0,0,1,9.278,1.161,36.359,36.359,0,0,1,8.329,3.337,53.611,53.611,0,0,1,14.546,12.313,136.022,136.022,0,0,1,12.963,18.356c4.22,6.927,8.414,14.549,12.854,22.619l0,.008.154.28v331.076c-.6.006-1.17.008-1.7.008a254.711,254.711,0,0,1-26.575-1.569,286.58,286.58,0,0,0-30.164-1.66,230.592,230.592,0,0,0-38.682,3.153,257.749,257.749,0,0,0-29.616,6.938c-3.795,1.108-7.352,2.207-10.791,3.269l-.062.019c-5.938,1.835-11.546,3.568-16.707,4.8A62.5,62.5,0,0,1,6440.9-2777.022Z" transform="translate(-6355.004 3183.135)" fill="#b9eaee"/>
</svg>
