<svg xmlns="http://www.w3.org/2000/svg" width="588.415" height="613.256" viewBox="0 0 588.415 613.256">
  <path id="Path_108" data-name="Path 108" d="M821.835,242.794a212.277,212.277,0,0,0-51.355,6.682c-16.377,4.278-32.1,11.491-47.071,20.483-28.265,16.974-53.764,41.341-76.14,68.024a445.772,445.772,0,0,0-60.247,92.483C572.9,459.708,561.25,491.232,556.278,524.7c-4.087,27.5-4.2,55.951-1.273,83.63a378.487,378.487,0,0,0,18.322,82.675,338.988,338.988,0,0,0,36.243,75.157c14.2,21.739,31.121,41.054,50.554,55.861,20.952,15.965,43.9,26.392,68.449,30.74,34.587,6.125,70.137,3.22,104.333-4.866,35.068-8.293,69.179-21.333,102.372-37.217,28.924-13.84,57.434-29.5,84.291-48.513,27.051-19.153,52.484-41.74,74.042-69.332,21.6-27.638,39.578-61.411,45.548-99.157,5.855-37-.1-74.735-13.936-108.186-14.13-34.16-35.008-64.41-58.514-89.8a335.286,335.286,0,0,0-73.659-59.313,406.55,406.55,0,0,0-40.834-21.376c-7.446-3.394-14.944-6.575-22.371-10.025q-12.01-5.574-24.345-10.056c-34.388-12.475-70.578-19.28-106.528-18.152A309.912,309.912,0,0,0,693.954,298.5a369.118,369.118,0,0,0-51.324,25.3c-3.674,2.171-9.169,9.576-2.907,12.487,6.684,3.1,14.806-.139,20.846-3.708.5-.3,3.857-2.251,1.8-1.066-1.958,1.129.891-.5,1.372-.771q3.045-1.716,6.118-3.362,5.893-3.155,11.879-6.049,5.949-2.875,11.985-5.479c1.929-.832,3.867-1.638,5.807-2.435,2.722-1.119-3.017,1.168-.28.117,1.2-.459,2.4-.929,3.6-1.382q12.122-4.575,24.51-8.029,2.976-.827,5.963-1.591c.459-.117.918-.248,1.38-.351.134-.029-3.393.816-1.69.424,1.232-.285,2.46-.584,3.692-.865q6.242-1.417,12.527-2.548,6.064-1.091,12.161-1.915,3.055-.415,6.118-.76c1.1-.123,2.2-.238,3.3-.355.4-.041,2.074-.193.039-.01-2.144.195.085,0,.513-.041q12.877-1.11,25.8-1.068c4.408.012,8.8.258,13.2.576.264.018,1.93.125.328.023-1.707-.111.4.039.818.076q1.466.132,2.932.281,3.412.341,6.818.765,13.061,1.623,26,4.442,6.433,1.405,12.817,3.107,3.07.818,6.127,1.707,1.41.409,2.819.834.7.212,1.407.428c-.061-.018,2.691.842,1.477.455-.874-.277,1.506.494,1.938.637q1.632.541,3.262,1.1,3.259,1.122,6.5,2.32,6.26,2.318,12.444,4.927c7.818,3.3,15.485,7.065,23.282,10.425q10.715,4.615,21.256,9.794a381.068,381.068,0,0,1,40.36,22.938q4.847,3.173,9.612,6.526,2.29,1.611,4.556,3.267c-1.173-.857.514.383.874.652q1.385,1.033,2.761,2.083,9.289,7.084,18.16,14.926a320.145,320.145,0,0,1,63.885,77.793q3.638,6.226,6.982,12.692-.5-.963-.995-1.923c15.7,30.586,25.876,65.39,25.033,101.69q.033-1.131.063-2.263a186.238,186.238,0,0,1-19.9,77.922,247.113,247.113,0,0,1-18.975,30.975c-3.617,5.053-7.408,9.908-11.291,14.664-.362.443-1.3,1.82.187-.219-.357.492-.8.945-1.19,1.4q-1.492,1.746-3.011,3.466-3.037,3.447-6.167,6.772a319.918,319.918,0,0,1-25.681,24.392c-2.062,1.759-4.182,3.423-6.235,5.194,3.041-2.622-.767.6-1.494,1.177q-1.765,1.393-3.539,2.761-6.75,5.2-13.667,10.066c-9.412,6.635-19.036,12.835-28.8,18.681-2.234,1.336-4.491,2.615-6.723,3.956,4.218-2.533-.128.064-1.132.631q-2.053,1.162-4.112,2.306-7.234,4.012-14.55,7.809-16,8.317-32.3,15.781-8.519,3.889-17.123,7.5-2,.836-4,1.656c-.743.305-1.484.619-2.23.908.247-.1,3.689-1.468,1.181-.476q-4.493,1.777-9,3.478c-11.782,4.423-23.69,8.367-35.717,11.7-2.776.769-5.565,1.455-8.345,2.2,4.991-1.341-.573.127-1.584.363q-2.326.544-4.654,1.051-9.06,1.98-18.191,3.409-4.429.689-8.87,1.234-2.1.258-4.2.48c-.507.055-1.921.506-2.334.238l1.841-.172q-.933.086-1.865.162-8.828.726-17.681.8-4.4.034-8.8-.111-2.078-.068-4.156-.176-1.153-.061-2.305-.135c-.377-.025-3.529-.238-1.591-.1,2.069.144-.964-.09-1.125-.107q-.918-.086-1.834-.18-2.292-.237-4.58-.527-4.569-.581-9.115-1.384c-4.663-.826-9.305-1.82-13.9-3.093q-1.558-.434-3.109-.9c-.41-.125-.824-.279-1.237-.383,2.822.707,1.226.4.51.15-2.038-.707-4.075-1.414-6.094-2.2a145.956,145.956,0,0,1-22.519-11.1c-3.679-2.218-7.264-4.628-10.813-7.127-.444-.312-1.739-1.277.01.021q-.538-.4-1.078-.8-1.344-1.008-2.674-2.048-2.665-2.078-5.266-4.27a203.337,203.337,0,0,1-19.2-18.525,261.489,261.489,0,0,1-33.093-45.869q-3.585-6.232-6.9-12.68l.994,1.925c-21-40.869-34.447-87.644-38.673-135.468a346.185,346.185,0,0,1-1.239-39.668q-.03,1.132-.063,2.265a283.238,283.238,0,0,1,10.147-68.38c8.517-30.317,20.1-56.006,34.854-81.931a444.458,444.458,0,0,1,24.763-38.686q6.6-9.233,13.611-18.029,1.7-2.137,3.427-4.249.941-1.147,1.885-2.288c.31-.375,1.462-1.718-.061.072,2.538-2.98,5.081-5.95,7.675-8.861a357.95,357.95,0,0,1,29.817-29.836q3.682-3.259,7.447-6.381c.452-.373.906-.744,1.358-1.117,2.4-1.988-2.429,1.914,0,0,1.431-1.127,2.861-2.259,4.306-3.366a213.75,213.75,0,0,1,17.929-12.38q.959-.59,1.924-1.164c3.2-1.912-2.468,1.353.1-.078,1.53-.853,3.058-1.7,4.6-2.513q4.922-2.589,9.973-4.8c.767-.336,1.54-.654,2.309-.986,2.934-1.273-3.748,1.433-.78.3,1.805-.687,3.609-1.369,5.43-2q4.674-1.614,9.419-2.894c.794-.215,1.593-.4,2.385-.623-4.954,1.406-1.547.389-.391.127q2.624-.593,5.261-1.09,4.949-.938,9.931-1.562,1.267-.16,2.533-.3c1.039-.117,4.974-.035.564-.08,1.725.018,3.488-.283,5.212-.389,3.883-.24,7.769-.363,11.655-.41a27.765,27.765,0,0,0,11.565-2.884c2.536-1.246,6.416-3.53,8.027-6.473,3.714-6.783-3.191-9.113-7.7-9.06" transform="translate(-552.985 -242.793)" fill="#00c2d1"/>
</svg>
