<svg id="Group_33" data-name="Group 33" xmlns="http://www.w3.org/2000/svg" xmlns:xlink="http://www.w3.org/1999/xlink" width="143.947" height="133.194" viewBox="0 0 143.947 133.194">
  <defs>
    <clipPath id="clip-path">
      <rect id="Rectangle_17" data-name="Rectangle 17" width="143.947" height="133.194" fill="none"/>
    </clipPath>
  </defs>
  <g id="Group_32" data-name="Group 32" clip-path="url(#clip-path)">
    <path id="Path_53" data-name="Path 53" d="M18.97,1.455a24.11,24.11,0,0,0-8.809,5.669,29.256,29.256,0,0,0-5.5,8.193C2.089,20.834,1.054,27.029.509,33.047c-1.315,14.52.033,29.409,2.741,43.7a118.113,118.113,0,0,0,4.3,16.893A54.993,54.993,0,0,0,17.314,110.5c10.215,12.265,25.505,19.722,41.179,21.892a87.991,87.991,0,0,0,53.37-9.722,74.152,74.152,0,0,0,20.517-16.36A44.507,44.507,0,0,0,142.5,87.5c3.321-13.5.77-28.662-6.154-40.641-3.4-5.883-7.609-11.2-13.244-15.088a38.093,38.093,0,0,0-21.763-6.883,48.632,48.632,0,0,0-14.178,2.087c-4.115,1.257-8.369,2.767-11.917,5.264A56.945,56.945,0,0,0,61.161,46.97c-5.631,8.287-14.7,25.617-1.919,32.123,3.517,1.789,7.854,2.2,11.732,2.128a18.537,18.537,0,0,0,6.812-1.372c1.512-.635,3.776-1.823,4.679-3.322.648-1.077,1.1-2.446.009-3.471a6.8,6.8,0,0,0-4.668-1.44c-.915.019-1.84-.1-2.75-.068.072,0,2.19.263,1.062.1-.2-.03-.4-.052-.6-.083-.378-.059-.754-.129-1.127-.213-.681-.155-1.728-.729.35.147-.275-.116-.568-.2-.846-.31a10.367,10.367,0,0,1-1.714-.9l1.145.769a8.221,8.221,0,0,1-2.483-2.61q.3.516.61,1.033a10.6,10.6,0,0,1-1.241-5.386q-.006.6-.011,1.2c.083-4.239,1.651-8.362,3.488-12.127q-.3.619-.607,1.238A62.236,62.236,0,0,1,79.543,44.1q.84-1.095,1.727-2.152.452-.539.915-1.066c.414-.469,1.909-1.96.1-.135,1.234-1.243,2.449-2.484,3.8-3.6q.365-.3.738-.59c.145-.111.293-.219.437-.331.808-.621-1.845,1.277-1.008.716.588-.394,1.185-.753,1.8-1.107.9-.519-2.378,1.12-1.436.716.23-.1.456-.208.686-.309.548-.24,1.1-.47,1.659-.686.827-.322,3.175-1.022-.357.081.629-.2,1.255-.4,1.89-.57q.665-.181,1.335-.336c.265-.061.53-.115.8-.173-3.314.736-2.051.4-1.3.269,1.114-.192,2.233-.31,3.359-.4-3.377.271-1.232.074-.421.069q.747-.006,1.493.027c.736.032,2.688.352-.221-.061.561.08,1.124.132,1.684.222a28.964,28.964,0,0,1,3.042.661c.229.062.456.139.686.2-2.228-.552-.99-.305-.457-.122s1.04.375,1.551.583a32.734,32.734,0,0,1,5.847,3.132l-1.145-.768a42.927,42.927,0,0,1,12.573,13.746q-.3-.516-.61-1.033a56.725,56.725,0,0,1,7.76,28.944l.012-1.2a44.481,44.481,0,0,1-4.227,18.964q.3-.618.608-1.238a41.258,41.258,0,0,1-5.251,7.939q-.77.932-1.574,1.835c-.134.149-.269.3-.4.447-.766.859.983-1.032.417-.443-.346.361-.688.724-1.039,1.079q-1.831,1.854-3.811,3.551c-1.337,1.147-2.881,2.107-4.176,3.288-.055.05,1.748-1.226.864-.616-.161.111-.322.224-.483.336q-.544.374-1.1.738-1.1.726-2.233,1.407-1.066.642-2.155,1.243-.576.318-1.159.625c-.374.2-2.1,1.067-.449.241,1.617-.808.143-.079-.2.084q-.594.28-1.192.549-1.2.539-2.414,1.029-1.147.463-2.311.886c-.41.149-.825.286-1.235.435-.2.073,2.62-.867,1.443-.492-.277.088-.553.179-.831.266q-2.426.762-4.9,1.347-.636.15-1.274.289l-.567.121c-1.207.261,1.709-.333,1.5-.3-.857.148-1.71.318-2.569.454q-2.574.406-5.171.625c-.385.033-.769.06-1.153.088-1.288.094,2.16-.116,1.181-.072-.193.008-.385.02-.577.028q-1.369.063-2.74.072-2.52.017-5.036-.147-.645-.042-1.29-.1c-1.618-.136,1.61.173.506.05-.855-.095-1.709-.195-2.561-.316q-2.55-.365-5.066-.921-1.394-.307-2.773-.677-.689-.185-1.373-.383c-.182-.053-.363-.11-.546-.162,2.072.58.947.292.5.149q-2.709-.867-5.334-1.973a60.649,60.649,0,0,1-10-5.38l1.145.769a56.986,56.986,0,0,1-17.153-18.1q.3.516.61,1.033c-3.383-5.739-5.287-11.988-6.811-18.442A178.549,178.549,0,0,1,18.1,53.783c-.453-5.112-.69-10.244-.642-15.377l-.012,1.2c.1-9.05.809-18.822,4.837-27.087q-.3.62-.608,1.238a25.155,25.155,0,0,1,1.615-2.816q.431-.642.908-1.249c.547-.693,1.7-1.711.026-.111.352-.336.69-.681,1.061-1,.172-.146.35-.284.525-.426.981-.794-1.785,1.192-.835.588.4-.255.806-.491,1.218-.727.709-.408-2.437,1.122-1.212.615.26-.107.516-.218.779-.317a10.594,10.594,0,0,0,4.679-3.322c.68-1.017,1.042-2.5.009-3.471C27.591-1.157,22.1.279,18.97,1.455" fill="#00c2d1"/>
  </g>
</svg>
