<svg xmlns="http://www.w3.org/2000/svg" xmlns:xlink="http://www.w3.org/1999/xlink" width="333.401" height="291.634" viewBox="0 0 333.401 291.634">
  <defs>
    <clipPath id="clip-path">
      <rect id="Rectangle_5" data-name="Rectangle 5" width="333.401" height="291.634" fill="none"/>
    </clipPath>
  </defs>
  <g id="Group_87" data-name="Group 87" transform="translate(1706 -21)">
    <g id="Group_9" data-name="Group 9" transform="translate(-1706 21)" clip-path="url(#clip-path)">
      <path id="Path_28" data-name="Path 28" d="M171.429,7.476q1.155-.085,2.311-.137c.438-.019.876-.03,1.315-.044.958-.032-1.929.009-.242.008q2.433,0,4.863.164,1.125.077,2.247.191.558.056,1.117.122c.3.035,1.7.22.675.078-1.069-.147.271.044.511.082q.554.087,1.1.182,1.26.218,2.511.479a75.472,75.472,0,0,1,9.088,2.511c1.523.523,3.019,1.111,4.516,1.706-.815-.324-.126-.053.283.124q.521.225,1.038.457,1.113.5,2.212,1.028c12.206,5.882,22.973,14.443,32.471,24.033a195.782,195.782,0,0,1,16.206,18.732l-.512-.669C267.492,75.307,279.116,96.111,289,117.544a420.151,420.151,0,0,1,21.953,58.331,137.367,137.367,0,0,1,4.08,16.713,77.761,77.761,0,0,1,.353,22.227c.037-.279.073-.557.109-.836a74.175,74.175,0,0,1-10.5,29.17q-1.012,1.63-2.106,3.208-.519.75-1.054,1.486c-.2.274-.4.545-.6.816q-.283.377.083-.1-.186.241-.373.482c-1.643,2.087-3.368,4.1-5.2,6.029q-2.7,2.844-5.664,5.43-1.413,1.236-2.879,2.411c-.068.055-1.151.919-.385.31s-.327.248-.4.3q-.842.636-1.7,1.252-3.372,2.43-6.951,4.549c-.556.33-1.116.652-1.677.972-1.312.749,1.214-.656.318-.179-.319.17-.635.344-.954.514q-1.928,1.023-3.9,1.961c-1.193.568-2.4,1.107-3.612,1.632-1.23.533.714-.3.776-.326-.332.16-.688.281-1.03.418q-1.139.457-2.288.886-1.9.708-3.817,1.342c-.306.1-1.8.576-.15.057,1.617-.51.212-.07-.114.029q-.977.3-1.957.583-3.87,1.125-7.789,2.069-.913.222-1.83.433l-.818.187c-1.654.381,2.359-.508.7-.154-1.38.293-2.76.582-4.144.851q-4,.775-8.02,1.39-1.928.3-3.861.555c-.359.049-.719.1-1.079.143-1.1.146,2.23-.27.639-.08-.724.086-1.449.174-2.173.255q-8.608.971-17.272,1.3-2.026.081-4.054.128l-.9.019c-.174,0-1.686.053-.419.009s-.247,0-.421,0q-.68.006-1.361.009-4.335.018-8.667-.107-8.988-.255-17.945-1.1-4.392-.413-8.771-.961-1.039-.131-2.077-.268l-1.153-.155c.2.027,1.214.173.129.016-1.537-.222-3.073-.449-4.607-.691a280.913,280.913,0,0,1-34.916-7.818q-8.481-2.482-16.784-5.529c-5.727-2.107-10.094-3.892-15.438-6.324-20.466-9.314-40.206-21.752-55.386-38.528q-3.037-3.357-5.794-6.952l.512.669a91.145,91.145,0,0,1-14.145-26.324c-3.1-9.319-5.04-19.771-3.8-29.593l-.108.836a36.825,36.825,0,0,1,2.955-10.4A35.094,35.094,0,0,1,23,146.658q.708-1.1,1.5-2.137c-.467.617.025-.016.226-.263q.474-.577.968-1.138a42.349,42.349,0,0,1,3.593-3.6c.668-.594,1.364-1.148,2.048-1.721.5-.42-.445.368-.446.346,0-.053.413-.312.463-.349.419-.3.836-.613,1.26-.91,1.458-1.022,2.97-1.948,4.5-2.855,1.074-.636-1.454.773-.061.034.418-.221.834-.445,1.254-.661q1.274-.654,2.57-1.26c.813-.381,1.638-.73,2.455-1.1s-1.188.509-1.04.436c.246-.121.523-.216.775-.318q.681-.276,1.368-.541,2.776-1.074,5.613-1.988c.2-.066.412-.124.613-.2s-2.2.68-1.258.4c.483-.144.963-.294,1.446-.437.917-.271,1.837-.531,2.758-.786q2.7-.749,5.422-1.432,2.7-.678,5.41-1.295l.611-.139c1.363-.309-1.125.248-1.11.245.413-.081.824-.18,1.236-.268q1.56-.334,3.123-.649,5.874-1.185,11.8-2.1,2.978-.459,5.963-.852c.609-.08,2.476-.289-.145.015.449-.052.9-.11,1.344-.163q1.575-.186,3.151-.353,6.256-.663,12.539-1.018,3.222-.182,6.448-.276c1-.029,2-.042,3-.068.033,0-1.53.016-.723.013.308,0,.616-.006.924-.009l1.617-.006q6.345,0,12.681.372,6.282.376,12.53,1.164c.233.03,1.823.246,1.044.136-.75-.1.6.089.814.12q1.677.249,3.347.531,2.985.5,5.951,1.125c3.963.831,7.894,1.823,11.769,3q2.908.885,5.771,1.913,1.317.474,2.622.98.6.232,1.2.472l.6.241c1.266.511-.4-.174.322.133a89.824,89.824,0,0,1,33.736,24.736q1.562,1.85,3.033,3.771l-.512-.67c9.417,12.347,16.621,27.187,18.177,42.785a54.11,54.11,0,0,1-.147,12.365c.037-.279.073-.557.109-.836a42.417,42.417,0,0,1-7.163,18.676c-.259.368-.525.73-.793,1.091.594-.8-.151.177-.356.428q-.878,1.072-1.824,2.086a45.353,45.353,0,0,1-4.043,3.823c-.241.2-.915.549-1.007.822.141-.414.937-.705.313-.247-.2.15-.4.3-.61.454q-1.252.918-2.558,1.76c-.844.545-1.72,1.036-2.574,1.566-.664.412.815-.443.745-.411-.247.112-.489.267-.73.4q-.84.447-1.691.868-.675.334-1.358.653c-.263.123-.53.24-.793.364-1.23.582.6-.253.709-.285-.519.155-1.021.408-1.532.6q-.441.162-.887.315c-1.44.5.248,0,.712-.211a11.942,11.942,0,0,1-1.824.514c-.377.1-2.37.558-.684.181s-.323.048-.707.117c-.71.128-1.423.23-2.136.339-1.058.162,1.783-.193.716-.093-.321.031-.642.069-.963.1q-.846.079-1.694.134c-.649.041-1.3.066-1.948.092-.2.008-1.056.024-.038.006,1.158-.021-.286-.006-.53-.009-2.554-.024-5.077-.251-7.614-.521-.883-.094.921.152.044.007-.325-.053-.652-.1-.977-.152q-.854-.14-1.7-.3-1.939-.366-3.857-.84a70.032,70.032,0,0,1-7.476-2.3,50.576,50.576,0,0,1-5.948-2.612,62.612,62.612,0,0,1-5.973-3.478c-7.708-5.054-15.194-11-20.834-18.35l.513.67c-3.39-4.5-6.27-9.911-5.6-15.722q-.054.417-.109.836a17.084,17.084,0,0,1,.335-1.712c.77-3.075-5.51-2.136-7-1.856a24.23,24.23,0,0,0-6.622,2.08c-1.087.559-3.216,1.462-3.542,2.763-2.365,9.455,4.109,17.971,10.379,24.33a86.734,86.734,0,0,0,22.512,16.648c23.408,11.662,52.465,10.15,74.377-4.231,7.4-4.855,13.82-11.358,17.686-19.389a48.134,48.134,0,0,0,4.327-22.679c-.647-16.46-8.019-32.407-17.77-45.431a95.4,95.4,0,0,0-17.206-17.963,97.26,97.26,0,0,0-26.365-14.339c-20.539-7.651-42.882-9.592-64.646-9.149a273.729,273.729,0,0,0-64.553,9.29c-11.016,2.93-21.861,6.712-31.673,12.6-8.084,4.852-15.459,11.616-19.4,20.325-4.327,9.575-3.821,20.463-1.841,30.551a86.042,86.042,0,0,0,12.453,30.272c11.567,17.767,28.394,31.526,46.526,42.194a240.6,240.6,0,0,0,58.754,24.233,289.3,289.3,0,0,0,65.176,9.937,255.756,255.756,0,0,0,66.48-5.974c21.448-4.9,42.382-13.693,58.347-29.223,14.078-13.694,22.925-31.812,24.078-51.487.968-16.536-4.313-32.583-9.508-48.068a434.475,434.475,0,0,0-18.514-46.215,342.582,342.582,0,0,0-26.482-47.152c-9.745-14.35-20.844-28.034-34.066-39.335-11.9-10.172-25.852-18.427-41.223-21.96a82.8,82.8,0,0,0-24.6-1.793,25.317,25.317,0,0,0-6.775,1.509,13.58,13.58,0,0,0-4.847,2.694c-2.717,2.826,2.436,3.164,4.157,3.038" fill="#00c2d1"/>
    </g>
  </g>
</svg>
