<svg id="Group_4" data-name="Group 4" xmlns="http://www.w3.org/2000/svg" xmlns:xlink="http://www.w3.org/1999/xlink" width="588.861" height="362.864" viewBox="0 0 588.861 362.864">
  <defs>
    <clipPath id="clip-path">
      <rect id="Rectangle_2" data-name="Rectangle 2" width="588.861" height="362.864" fill="none"/>
    </clipPath>
  </defs>
  <g id="Group_3" data-name="Group 3" clip-path="url(#clip-path)">
    <path id="Path_24" data-name="Path 24" d="M15.524,20.836c.811-.688,1.638-1.352,2.493-1.984-1.263.934,1.357-.866,1.7-1.076.966-.6,1.963-1.134,2.949-1.695.315-.179,1.444-.72-.106.032.635-.308,1.272-.611,1.915-.9q1.636-.737,3.312-1.387c.453-.176.912-.336,1.364-.514,2.291-.9-1.856.541.515-.186,2.4-.736,4.8-1.419,7.253-1.964.011,0,2.456-.478,1.065-.23s1.08-.177,1.083-.177q1.707-.285,3.423-.5t3.447-.367c.178-.015,2.719-.172.882-.08q1.152-.058,2.305-.084a57.728,57.728,0,0,1,13.827,1.052c8.12,1.553,16.36,4.951,22.233,11.627,5.2,5.905,7.164,13.832,6.52,21.58C90.153,62.6,79.416,79.725,70.186,95.446c-8.573,14.605-18.79,30.64-16.5,48.369a28.062,28.062,0,0,0,10.033,18.209c7.087,5.659,15.879,7.954,24.769,8.742,22.684,2.011,46.533-5.918,65.651-17.722,18.318-11.31,33.4-26.716,48.782-41.574a301.74,301.74,0,0,1,23.393-20.846,104.2,104.2,0,0,1,11.04-7.783c1.4-.857,2.82-1.667,4.259-2.447.862-.467,1.734-.915,2.6-1.367-1.888.983.769-.368,1.441-.686q3.078-1.454,6.228-2.747,1.648-.675,3.316-1.306c.641-.242,3.939-1.392,1.837-.693,2.321-.772,4.663-1.479,7.033-2.083,1.058-.27,2.142-.458,3.193-.749,1.406-.388-2.171.344.125-.019.7-.111,1.4-.24,2.111-.342,1.157-.168,2.314-.277,3.476-.4,1.575-.172.168-.015-.141-.005.673-.023,1.344-.046,2.017-.046.878,0,1.752.05,2.628.085,2.084.081-1.411-.3.607.069.615.113,1.233.193,1.845.32a16.191,16.191,0,0,1,8.552,4.819c10.467,11.348,8.442,27.316,3.773,41.075-5.824,17.165-15.379,32.793-23.625,48.844-7.291,14.191-14.729,29.043-13.472,45.424a36.672,36.672,0,0,0,7.479,20.3,35.09,35.09,0,0,0,16.095,10.768c15.114,5.17,31.833,4.19,47.425,2.1,15.013-2.013,29.7-5.68,44.539-8.6-2.612.514,1.142-.169,1.777-.263,1.16-.173,2.324-.317,3.492-.425.259-.024,2.718-.112.74-.065.469-.012.937-.03,1.407-.034,1.331-.012,2.663.032,3.99.144-1.622-.137.95.168,1.427.256.86.159,1.71.355,2.555.581,1.782.477-1.151-.467.535.18.338.13.677.253,1.012.392a24.988,24.988,0,0,1,2.618,1.26,12.427,12.427,0,0,1,3.211,2.33,26.354,26.354,0,0,1,3.586,3.973,33.047,33.047,0,0,1,4.474,8.906c6.419,18.192,5.01,38.342,5.37,57.282.2,10.584,1.461,21.117,7.1,30.307,4.948,8.067,13.4,13.749,22.088,17.171,19.162,7.546,40.977,6.454,60.949,3.333,20.684-3.232,40.848-8.977,60.825-15.12,7.771-2.389,15.521-4.862,23.351-7.056,2.465-.691,8.514-3,7.556-6.572-.942-3.517-7.535-2.558-9.83-1.914-17.759,4.976-35.2,10.992-53.068,15.608-5.131,1.326-10.289,2.556-15.475,3.649-.651.137-1.3.266-1.952.4-1.539.325,2.137-.4-.384.075-1.3.247-2.6.492-3.909.723q-3.888.688-7.8,1.244-3.669.518-7.353.9-1.725.176-3.453.317c-.762.061-1.524.114-2.287.168-1.823.13,1.151-.024-.839.042a131.47,131.47,0,0,1-14.709-.183c-.474-.038-.948-.076-1.421-.122,1.543.15-.765-.1-.875-.114q-1.559-.2-3.109-.446c-2.358-.383-4.7-.868-7.011-1.477a36.59,36.59,0,0,1-5.036-1.642,53.816,53.816,0,0,1-6.188-2.848,34.939,34.939,0,0,1-17.383-21.388c-2.9-10.2-2.442-21.018-2.4-31.51a211.049,211.049,0,0,0-1.809-29.78c-1.086-7.851-2.811-15.853-6.778-22.8a29.746,29.746,0,0,0-17.841-14.265c-16.519-4.926-34.567,1.516-50.872,4.829-.462.094-.926.185-1.388.28-1.287.265,2.336-.454.39-.079-.945.183-1.89.367-2.836.545q-2.877.543-5.765,1.037c-3.9.663-7.811,1.251-11.738,1.719q-2.789.333-5.586.58-1.314.116-2.631.209c-.453.031-2.487.125-.135.016-.578.027-1.156.058-1.735.082a103.776,103.776,0,0,1-11.252-.11c-.519-.035-3.4-.357-1.3-.093-.79-.1-1.582-.186-2.37-.3-1.789-.257-3.568-.586-5.326-1-.732-.175-1.456-.376-2.182-.572-.364-.1-1.452-.49-.064-.011-.307-.106-.621-.2-.925-.314a45.259,45.259,0,0,1-4.83-2.065q-.936-.48-1.839-1.018c-.283-.169-1.9-1.271-.983-.609a29.287,29.287,0,0,1-3.843-3.276A23.253,23.253,0,0,1,275.662,219c-6.391-14.241-2.171-29.228,3.863-42.72,7.327-16.384,17.126-32.128,24.664-48.684,6.4-14.049,12.842-31.277,7.733-46.74-2.475-7.492-7.694-14.677-15.107-17.821-9.881-4.19-21.261-3-31.47-.832-19.283,4.088-37.165,13.428-52.621,25.472-16.6,12.935-30.718,28.644-46.339,42.679a156.723,156.723,0,0,1-23.655,18.126c-2.251,1.371-4.553,2.641-6.878,3.88-1.471.784-.488.251-.167.093q-1.074.529-2.161,1.033-1.822.848-3.676,1.623-1.872.785-3.774,1.493c-.64.238-1.284.463-1.926.694-1.505.541,2.068-.626-.47.143-2.693.816-5.389,1.585-8.134,2.206-.14.032-2.917.6-1.042.241q-.841.162-1.687.308-2.051.355-4.115.622-1.782.229-3.574.382c-.4.034-2.113.142-.5.057q-1.124.059-2.249.079-1.809.036-3.619-.026-.7-.024-1.4-.064c-.16-.01-2.438-.194-.787-.03a46.515,46.515,0,0,1-6.336-1.081c-.494-.12-.984-.253-1.474-.386-1.108-.3,1.377.491-.4-.119-.908-.311-1.806-.648-2.688-1.027a29.583,29.583,0,0,1-4.816-2.569c.733.493-.184-.148-.354-.278-.344-.262-.684-.526-1.017-.8q-.983-.816-1.881-1.726a24.774,24.774,0,0,1-3.15-3.915c-3.488-5.375-4.187-13.515-3.031-20.277a60.692,60.692,0,0,1,4.2-13.713,48.936,48.936,0,0,1,2.247-4.715c.935-1.792,1.914-3.56,2.909-5.318,9.373-16.55,20.282-32.763,25.812-51.137,2.45-8.142,3.769-17.185,1.65-25.552-2.262-8.933-8.512-15.831-16.265-20.5C83.262,2.855,72.831.808,62.8.177A98.3,98.3,0,0,0,29.527,3.984C19.471,6.909,9.662,11.314,1.622,18.129c-2.769,2.347-1.835,5.282,1.608,6a15.631,15.631,0,0,0,12.294-3.294" fill="#00c2d1"/>
  </g>
</svg>
