<svg id="Group_101" data-name="Group 101" xmlns="http://www.w3.org/2000/svg" xmlns:xlink="http://www.w3.org/1999/xlink" width="263.411" height="166.201" viewBox="0 0 263.411 166.201">
  <defs>
    <clipPath id="clip-path">
      <rect id="Rectangle_115" data-name="Rectangle 115" width="263.411" height="166.201" fill="none"/>
    </clipPath>
  </defs>
  <g id="Group_100" data-name="Group 100" clip-path="url(#clip-path)">
    <path id="Path_258" data-name="Path 258" d="M93.041,122.371c-1.531.688-3.029,1.464-4.549,2.185L77.51,129.848q-6.623,3.2-13.257,6.39-5.758,2.779-11.515,5.547c-1.864.9-3.761,1.731-5.591,2.7a.272.272,0,0,0-.078.044H49.31c-1.531-.732-3.062-1.475-4.593-2.208q-5.509-2.646-11.016-5.3-6.623-3.195-13.257-6.39-5.741-2.762-11.482-5.536c-1.842-.888-3.65-1.864-5.536-2.662-.033-.011-.055-.033-.089-.044v3.827C4.868,125.478,6.4,124.734,7.93,124q5.491-2.646,10.972-5.28,6.623-3.2,13.257-6.39,5.758-2.779,11.5-5.547c1.853-.888,3.75-1.72,5.558-2.685.022-.011.055-.022.077-.033H47.058c1.531.732,3.062,1.475,4.593,2.208q5.491,2.646,10.972,5.281,6.623,3.195,13.257,6.39,5.758,2.779,11.5,5.547c1.853.888,3.705,1.808,5.558,2.685.022.011.055.022.078.033a2.222,2.222,0,0,0,2.241-3.838c-1.531-.732-3.062-1.475-4.593-2.208q-5.525-2.663-11.06-5.325-6.656-3.212-13.312-6.412-5.724-2.762-11.46-5.525c-1.83-.876-3.639-1.786-5.48-2.64a2.575,2.575,0,0,0-2.363,0c-.2.089-.4.189-.6.288-.954.455-1.908.921-2.851,1.376q-5.192,2.5-10.395,5-6.623,3.195-13.246,6.379-5.974,2.879-11.959,5.758c-2.185,1.054-4.36,2.1-6.545,3.151-.1.044-.2.1-.31.144a2.229,2.229,0,0,0,0,3.827c1.542.7,3.051,1.464,4.57,2.208q5.525,2.663,11.038,5.325,6.656,3.211,13.3,6.412,5.741,2.762,11.471,5.525c1.83.888,3.661,1.8,5.514,2.652a2.576,2.576,0,0,0,2.363,0c.2-.089.4-.189.6-.289.954-.455,1.9-.921,2.851-1.376q5.191-2.5,10.394-5,6.639-3.2,13.29-6.4,5.991-2.879,11.981-5.769,3.245-1.564,6.479-3.129c.1-.044.2-.1.311-.144a2.209,2.209,0,1,0-2.208-3.827Z" transform="translate(0 -66.58)"/>
    <path id="Path_259" data-name="Path 259" d="M69.994,137.189c1.531.732,3.062,1.475,4.593,2.208q5.491,2.646,10.972,5.281,6.622,3.195,13.256,6.39,5.758,2.779,11.5,5.547c1.853.9,3.705,1.808,5.558,2.685.022.011.055.022.077.033a2.222,2.222,0,1,0,2.241-3.838c-1.531-.732-3.062-1.476-4.593-2.208q-5.491-2.646-10.971-5.28-6.623-3.2-13.257-6.39-5.757-2.779-11.5-5.547c-1.853-.9-3.705-1.808-5.558-2.685-.022-.011-.055-.022-.078-.033a2.222,2.222,0,0,0-2.241,3.838Z" transform="translate(-45.901 -88.631)"/>
    <path id="Path_260" data-name="Path 260" d="M149.679,228.144l16.277-7.839-.135,47.227-15.7,7.54Z" transform="translate(-99.681 -146.716)" fill="#b68d6b"/>
    <path id="Path_261" data-name="Path 261" d="M108.627,113.944,90.779,122.52l35.74,17.228.218-17.125Z" transform="translate(-60.456 -75.883)" fill="#b68d6b"/>
    <path id="Path_262" data-name="Path 262" d="M21.954,155.591l17.884-8.608,40.845,19.739L62.821,175.51Z" transform="translate(-14.621 -97.886)" fill="#b68d6b"/>
    <path id="Path_263" data-name="Path 263" d="M13.444,183.331l41.471,20.023-.025,47.128L13.414,230.464Z" transform="translate(-8.933 -122.093)" fill="#b68d6b"/>
    <path id="Path_264" data-name="Path 264" d="M93.048,218.491c-1.531.732-3.062,1.475-4.593,2.208q-5.491,2.646-10.972,5.281-6.623,3.195-13.257,6.39-5.758,2.779-11.5,5.547c-1.853.888-3.75,1.72-5.558,2.685-.022.011-.055.022-.077.033h2.241c-1.531-.732-3.062-1.475-4.593-2.208q-5.491-2.646-10.972-5.28-6.623-3.2-13.257-6.39Q14.749,223.977,9,221.21c-1.853-.888-3.683-1.864-5.558-2.685-.022-.011-.055-.022-.078-.033v3.827c.011,0,.011-.011.022-.011a2.186,2.186,0,0,0,1.1-1.919V174.75c0-2.108.089-4.227,0-6.335v-.089c-1.109.643-2.23,1.276-3.339,1.919,1.531.732,3.062,1.476,4.593,2.208q5.525,2.662,11.06,5.325,6.656,3.212,13.3,6.412,5.724,2.762,11.46,5.514c1.819.877,3.639,1.786,5.48,2.64a2.573,2.573,0,0,0,2.363,0c.2-.089.4-.188.6-.288.954-.455,1.9-.921,2.851-1.376q5.192-2.5,10.395-5,6.623-3.2,13.235-6.379,5.974-2.879,11.959-5.757c2.175-1.054,4.36-2.1,6.534-3.151.1-.044.2-.1.311-.144-1.11-.643-2.23-1.276-3.339-1.919v45.639c0,2.108-.055,4.227,0,6.335v.089a2.185,2.185,0,0,0,1.1,1.919c.011,0,.011.011.022.011a2.222,2.222,0,1,0,2.241-3.838c-.011,0-.011-.011-.022-.011.366.644.732,1.276,1.1,1.919V174.75c0-2.108.055-4.227,0-6.335v-.089a2.236,2.236,0,0,0-1.1-1.919,2.3,2.3,0,0,0-2.241,0c-1.531.732-3.062,1.475-4.593,2.208q-5.474,2.646-10.96,5.281-6.623,3.195-13.257,6.39-5.758,2.762-11.5,5.536c-1.853.888-3.738,1.719-5.558,2.674-.022.011-.055.022-.077.033h2.241c-1.531-.732-3.062-1.475-4.593-2.208q-5.474-2.646-10.961-5.28-6.623-3.2-13.257-6.39-5.758-2.762-11.5-5.536c-1.853-.888-3.694-1.808-5.558-2.674-.022-.011-.055-.022-.077-.033a2.3,2.3,0,0,0-2.241,0,2.236,2.236,0,0,0-1.1,1.919v45.639c0,2.108-.089,4.227,0,6.335v.089c.366-.643.732-1.276,1.1-1.919-.011,0-.011.011-.022.011a2.229,2.229,0,0,0,0,3.827c1.531.732,3.062,1.475,4.593,2.208q5.525,2.663,11.06,5.325,6.656,3.212,13.312,6.412,5.724,2.762,11.46,5.524c1.83.877,3.639,1.786,5.48,2.641a2.575,2.575,0,0,0,2.363,0c.2-.089.4-.189.6-.289.954-.455,1.908-.921,2.851-1.376q5.192-2.5,10.395-5,6.623-3.195,13.246-6.379,5.974-2.879,11.959-5.758c2.185-1.054,4.36-2.1,6.545-3.151.1-.044.2-.1.311-.144a2.235,2.235,0,0,0,.8-3.04,2.316,2.316,0,0,0-3.051-.788Z" transform="translate(-0.007 -110.628)"/>
    <path id="Path_265" data-name="Path 265" d="M142.045,286.66V241c0-2.108.055-4.215,0-6.312V234.6a2.219,2.219,0,1,0-4.438,0v45.661c0,2.108-.055,4.215,0,6.312v.089a2.24,2.24,0,0,0,2.219,2.219,2.263,2.263,0,0,0,2.219-2.219" transform="translate(-91.626 -154.756)"/>
    <path id="Path_266" data-name="Path 266" d="M176.45,190.487q0,7.272-.011,14.544v2.052a2.24,2.24,0,0,0,2.219,2.219,2.262,2.262,0,0,0,2.219-2.219q0-7.272.011-14.544v-2.052a2.219,2.219,0,1,0-4.438,0Z" transform="translate(-117.503 -125.379)"/>
    <path id="Path_267" data-name="Path 267" d="M572.826,124.181l-15.553-15.554a1.851,1.851,0,0,0-1.295-.539h-9V96.11a1.818,1.818,0,0,0-.539-1.295L530.376,78.762a1.85,1.85,0,0,0-1.295-.539H493.646a1.837,1.837,0,0,0-1.835,1.835V108.1h-9a1.818,1.818,0,0,0-1.295.539l-15.526,15.525a1.791,1.791,0,0,0-.553,1.3V156.8a12.251,12.251,0,0,0,12.235,12.235h7.365l-2.833,9.712a1.806,1.806,0,0,0,.3,1.605,1.849,1.849,0,0,0,1.471.728h70.871a1.828,1.828,0,0,0,1.767-2.334l-2.833-9.712h7.365A12.251,12.251,0,0,0,573.377,156.8l0-31.336a1.961,1.961,0,0,0-.553-1.281Zm-41.91-39.713,9.821,9.821h-9.821Zm-35.45-2.589h31.781v14.23a1.837,1.837,0,0,0,1.835,1.835h14.23v17.913H495.467Zm-11.884,29.878h8.242V117.7a1.837,1.837,0,0,0,1.835,1.835h51.5A1.837,1.837,0,0,0,547,117.7v-5.948h8.242l11.884,11.884H471.685Zm2.819,65.677,8.62-29.555h48.763l8.62,29.555Zm3.642-25.588h-4.262v-3.992H491.2Zm57.543-3.993h5.436v3.992h-4.277Zm22.109,8.957a8.592,8.592,0,0,1-8.579,8.579h-8.431l-2.874-9.874h5.031a1.837,1.837,0,0,0,1.835-1.835v-7.649a1.837,1.837,0,0,0-1.835-1.835H483.958a1.837,1.837,0,0,0-1.835,1.835v7.649a1.837,1.837,0,0,0,1.835,1.835h5.018l-2.874,9.874h-8.431a8.592,8.592,0,0,1-8.579-8.579V127.3h100.6Z" transform="translate(-309.968 -52.094)"/>
    <path id="Path_268" data-name="Path 268" d="M596.389,286.751l-.056,29.555h43.242l-8.62-29.555Z" transform="translate(-397.139 -190.967)" fill="#fff"/>
    <path id="Path_269" data-name="Path 269" d="M596.389,286.751l-.056,29.555h43.242l-8.62-29.555Z" transform="translate(-397.139 -190.967)" fill="none" stroke="#000" stroke-miterlimit="10" stroke-width="1"/>
    <path id="Path_270" data-name="Path 270" d="M661.457,96.917v9.821h9.82Z" transform="translate(-440.51 -64.543)" fill="#fff"/>
    <path id="Path_271" data-name="Path 271" d="M598.235,89.165l-.6,33.979h33.715V105.23H617.12s-1.87-.087-1.835-1.835,0-14.23,0-14.23Z" transform="translate(-398.007 -59.381)" fill="#fff"/>
    <path id="Path_272" data-name="Path 272" d="M597.359,186.4l-.057,4.1h57.635l-11.884-11.884h-8.242v5.948a1.679,1.679,0,0,1-1.835,1.835c-2.011.04-35.617,0-35.617,0" transform="translate(-397.784 -118.95)" fill="#999"/>
    <path id="Path_273" data-name="Path 273" d="M657.04,225.132v29.514s1.275,7.076-7.506,8.533l-9.5.046-2.873-9.874h5.031a2.035,2.035,0,0,0,1.835-1.835c.167-1.7-.008-7.817-.008-7.817a1.528,1.528,0,0,0-1.827-1.667c-2.007.1-45.593,0-45.593,0l.187-16.9Z" transform="translate(-397.313 -149.931)" fill="#999"/>
    <path id="Path_274" data-name="Path 274" d="M657.04,225.132v29.514s1.275,7.076-7.506,8.533l-9.5.046-2.873-9.874h5.031a2.035,2.035,0,0,0,1.835-1.835c.167-1.7-.008-7.817-.008-7.817a1.528,1.528,0,0,0-1.827-1.667c-2.007.1-45.593,0-45.593,0l.187-16.9Z" transform="translate(-397.313 -149.931)" fill="none" stroke="#000" stroke-miterlimit="10" stroke-width="1"/>
    <path id="Path_275" data-name="Path 275" d="M568.308,302.295h36.743a1.835,1.835,0,0,0,0-3.67H568.308a1.834,1.834,0,1,0,0,3.669Z" transform="translate(-377.253 -198.875)"/>
    <path id="Path_276" data-name="Path 276" d="M602.828,324.192H561.645a1.835,1.835,0,1,0,0,3.67h41.183a1.835,1.835,0,0,0,0-3.67" transform="translate(-372.816 -215.902)"/>
    <path id="Path_277" data-name="Path 277" d="M582.97,349.712H556.842a1.835,1.835,0,0,0,0,3.67H582.97a1.835,1.835,0,0,0,0-3.67" transform="translate(-369.617 -232.897)"/>
    <path id="Path_278" data-name="Path 278" d="M303.124,0c11.083,3.5,8.922,13.422,8.922,13.422s-2.97,127.384-.3,139.409-13.5,13.11-13.5,13.11-107.414.585-119.774,0-11.05-11.388-11.05-11.388.7-129.322.027-142.016S178.47,0,178.47,0Z" transform="translate(-111.469 0)" fill="#00c2d1"/>
    <path id="Path_279" data-name="Path 279" d="M315.814,32.034c9.406,3.051,7.572,11.714,7.572,11.714s-2.521,111.18-.253,121.676-11.46,11.443-11.46,11.443-91.153.51-101.641,0-9.378-9.94-9.378-9.94.59-112.872.023-123.95,9.354-10.943,9.354-10.943Z" transform="translate(-133.606 -21.333)" fill="#fff"/>
    <path id="Path_280" data-name="Path 280" d="M213.182,167.7a2.6,2.6,0,0,1,0-5.2h16.236a2.6,2.6,0,0,1,2.532,2l2.129,7.819h82.126a2.6,2.6,0,0,1,2.6,2.6,2.547,2.547,0,0,1-.112.751l-4.262,21.218a2.449,2.449,0,0,1-.1.48l-4.311,21.454a2.594,2.594,0,0,1-2.543,2.085v.011H247.312l2.129,7.822h55.435a2.6,2.6,0,0,1,0,5.2H247.452a2.605,2.605,0,0,1-2.512-1.921l-3.526-12.943c-.018-.052-.031-.1-.045-.16L235.5,197.375c-.014-.052-.027-.1-.042-.153l-1.476-5.419-4.412-16.2v-.007l-2.15-7.893h-14.24Zm81.6,69.732a9.293,9.293,0,1,1-6.569,2.723,9.259,9.259,0,0,1,6.569-2.723m2.89,6.4a4.092,4.092,0,1,0,1.195,2.89,4.071,4.071,0,0,0-1.195-2.89m-38.566-6.4a9.293,9.293,0,1,1-6.569,2.723,9.259,9.259,0,0,1,6.569-2.723m2.89,6.4a4.092,4.092,0,1,0,1.195,2.89,4.071,4.071,0,0,0-1.195-2.89m33.788-66.31-1.517,16.493h15.458l3.314-16.493Zm-2,21.7-1.518,16.489h13.1l3.314-16.489Zm-36.443,16.489-2.06-16.489H241.4l4.492,16.489h11.449Zm-2.71-21.7-2.06-16.493H235.5l4.491,16.493h14.648Zm3.185-16.493,2.06,16.493h29.177l1.518-16.493H257.82Zm2.71,21.7,2.06,16.49h24.473l1.518-16.49Z" transform="translate(-140.24 -108.217)"/>
    <path id="Path_281" data-name="Path 281" d="M734.2,245.523a3.332,3.332,0,1,0-3.332-3.332,3.339,3.339,0,0,0,3.332,3.332" transform="translate(-486.737 -159.073)"/>
    <path id="Path_282" data-name="Path 282" d="M711.364,286.674H716.8v3.992h-4.277Z" transform="translate(-473.746 -190.916)" fill="#4d4d4d"/>
  </g>
</svg>
