<svg xmlns="http://www.w3.org/2000/svg" xmlns:xlink="http://www.w3.org/1999/xlink" width="264" height="167" viewBox="0 0 264 167">
  <defs>
    <clipPath id="clip-path">
      <rect id="Rectangle_114" data-name="Rectangle 114" width="242.087" height="166.564" fill="none"/>
    </clipPath>
  </defs>
  <g id="Group_124" data-name="Group 124" transform="translate(-160 -3979)">
    <g id="Group_99" data-name="Group 99" transform="translate(170.001 3979)">
      <g id="Group_98" data-name="Group 98" clip-path="url(#clip-path)">
        <path id="Path_229" data-name="Path 229" d="M40.509,151.252s-.746-114.878,0-134.634S64.367.216,64.367.216L233.975.589s19.011-1.118,18.266,15.656.021,135.007.021,135.007Z" transform="translate(-25.201 0)" fill="gray"/>
        <path id="Path_230" data-name="Path 230" d="M242.175,161.469l-148.734-.285C78.9,163.509,80.014,150,80.014,150s.38-84.336.007-98.128,13.42-11.183,13.42-11.183l153.9-.2s17.946-3.531,14.591,12.5l.418,102.091s2.192,9.739-20.174,6.384" transform="translate(-50.175 -25.193)" fill="#fff"/>
        <path id="Path_231" data-name="Path 231" d="M0,405.755H242.087l-.137,8.881s-.746,7.083-7.083,6.337-226.811.055-226.811.055S2.584,421.884,0,415.65Z" transform="translate(0 -254.503)"/>
        <path id="Path_232" data-name="Path 232" d="M118.395,172.055a20.287,20.287,0,0,1-7.522-1.364,17.567,17.567,0,0,1-9.915-9.657,19.593,19.593,0,0,1,0-14.628,17.551,17.551,0,0,1,3.967-5.822,18.063,18.063,0,0,1,6-3.835,21.362,21.362,0,0,1,14.886-.052,14.841,14.841,0,0,1,5.806,3.938l-2.422,2.423a13.434,13.434,0,0,0-4.877-3.271,17.029,17.029,0,0,0-11.8.1,14.418,14.418,0,0,0-4.838,3.142,14.8,14.8,0,0,0-3.226,4.738,15.866,15.866,0,0,0,0,11.9,14.767,14.767,0,0,0,3.226,4.738,14.369,14.369,0,0,0,4.838,3.142,16.149,16.149,0,0,0,6.028,1.106,15.935,15.935,0,0,0,5.767-1.029,13.681,13.681,0,0,0,4.893-3.3l2.422,2.423a15.086,15.086,0,0,1-5.806,3.964,20.322,20.322,0,0,1-7.432,1.339" transform="translate(-62.436 -84.917)" fill="#00c2d1"/>
        <path id="Path_233" data-name="Path 233" d="M215.763,172.077a20.5,20.5,0,0,1-7.548-1.364,17.74,17.74,0,0,1-10-9.677,19.462,19.462,0,0,1,0-14.576,17.809,17.809,0,0,1,9.967-9.677,21.551,21.551,0,0,1,15.092,0,18.023,18.023,0,0,1,6,3.835,17.551,17.551,0,0,1,3.967,5.822,19.6,19.6,0,0,1,0,14.628,17.551,17.551,0,0,1-3.967,5.822,18.064,18.064,0,0,1-6,3.835,20.266,20.266,0,0,1-7.512,1.351m0-3.4a15.941,15.941,0,0,0,6-1.106,14.166,14.166,0,0,0,4.79-3.142,14.567,14.567,0,0,0,3.167-4.738,16.156,16.156,0,0,0,0-11.9,14.6,14.6,0,0,0-3.167-4.739,14.221,14.221,0,0,0-4.783-3.141,15.944,15.944,0,0,0-6-1.106,16.14,16.14,0,0,0-6.028,1.106,14.374,14.374,0,0,0-8.035,7.88,16.125,16.125,0,0,0,0,11.873,14.314,14.314,0,0,0,8.035,7.906,16.144,16.144,0,0,0,6.022,1.106" transform="translate(-123.44 -84.939)" fill="#00c2d1"/>
        <path id="Path_234" data-name="Path 234" d="M331.275,172.265V136.207h14.676a21.407,21.407,0,0,1,10.121,2.293,16.848,16.848,0,0,1,6.773,6.36,19.374,19.374,0,0,1,0,18.75,16.848,16.848,0,0,1-6.773,6.361,21.412,21.412,0,0,1-10.121,2.293Zm3.809-3.3h10.663a17.444,17.444,0,0,0,8.319-1.881,13.686,13.686,0,0,0,5.483-5.2,15.972,15.972,0,0,0,0-15.324,13.755,13.755,0,0,0-5.483-5.177,17.5,17.5,0,0,0-8.319-1.881H335.081Z" transform="translate(-207.787 -85.434)" fill="#00c2d1"/>
        <path id="Path_235" data-name="Path 235" d="M459.18,168.968h21.685v3.3H455.383V136.206h24.7v3.3h-20.9Zm-.413-16.637h19.056v3.245h-19.06Z" transform="translate(-285.631 -85.433)" fill="#00c2d1"/>
        <path id="Path_236" data-name="Path 236" d="M241.943,124.782a30.235,30.235,0,0,1,14.379,3.451" transform="translate(-151.755 -78.266)" fill="#00c2d1"/>
        <path id="Path_237" data-name="Path 237" d="M239.5,123.8a30.17,30.17,0,0,1,3.619.174l.5.058H243.6l.216.032c.322.045.619.093.929.148.6.106,1.187.229,1.777.371a30.856,30.856,0,0,1,3.464,1.055c.3.11.59.223.88.342.045.019.419.177.187.078l.4.174q.861.387,1.7.826a1.453,1.453,0,0,0,1.465-2.509A32.007,32.007,0,0,0,239.5,120.9a1.452,1.452,0,0,0,0,2.9Z" transform="translate(-149.312 -75.831)" fill="#00c2d1"/>
        <path id="Path_238" data-name="Path 238" d="M115.1,128.363a30.227,30.227,0,0,1,14.305-3.751" transform="translate(-72.195 -78.161)" fill="#00c2d1"/>
        <path id="Path_239" data-name="Path 239" d="M113.418,127.175q.826-.455,1.677-.861c.264-.123.526-.242.793-.358l.187-.081c.132-.058.268-.113.4-.164a30.4,30.4,0,0,1,3.513-1.155c.584-.152,1.171-.29,1.764-.406.284-.058.571-.11.858-.158l.429-.071.287-.042c.158-.023.19-.029.094-.016s.258-.032.322-.035c.168-.022.323-.038.507-.058.287-.029.577-.052.864-.074.645-.045,1.258-.068,1.887-.074a1.452,1.452,0,1,0,0-2.9,32.008,32.008,0,0,0-15.037,3.948,1.467,1.467,0,0,0-.523,1.987,1.484,1.484,0,0,0,1.987.523Z" transform="translate(-69.781 -75.718)" fill="#00c2d1"/>
        <path id="Path_240" data-name="Path 240" d="M130.122,155.624a11.1,11.1,0,1,1-11.1,11.1,11.1,11.1,0,0,1,11.1-11.1" transform="translate(-74.653 -97.613)" fill="#0a1045"/>
        <path id="Path_241" data-name="Path 241" d="M137.886,178.528a5.125,5.125,0,1,1-5.125,5.125,5.125,5.125,0,0,1,5.125-5.125" transform="translate(-83.272 -111.979)" fill="#fff"/>
        <path id="Path_242" data-name="Path 242" d="M158.235,164.8a2.561,2.561,0,1,1-2.561,2.561,2.561,2.561,0,0,1,2.561-2.561" transform="translate(-97.644 -103.366)" fill="#00c2d1"/>
        <path id="Path_243" data-name="Path 243" d="M253.457,170.5a1.71,1.71,0,1,1-1.71,1.71,1.709,1.709,0,0,1,1.71-1.71" transform="translate(-157.904 -106.942)" fill="#0a1045"/>
        <path id="Path_244" data-name="Path 244" d="M226.2,156.757a11.1,11.1,0,1,1-11.1,11.1,11.1,11.1,0,0,1,11.1-11.1" transform="translate(-134.914 -98.323)" fill="#0a1045"/>
        <path id="Path_245" data-name="Path 245" d="M233.968,179.661a5.125,5.125,0,1,1-5.125,5.125,5.125,5.125,0,0,1,5.125-5.125" transform="translate(-143.538 -112.689)" fill="#fff"/>
        <path id="Path_246" data-name="Path 246" d="M254.317,165.921a2.561,2.561,0,1,1-2.561,2.561,2.561,2.561,0,0,1,2.561-2.561" transform="translate(-157.91 -104.071)" fill="#00c2d1"/>
        <path id="Path_247" data-name="Path 247" d="M314.255,235.468l1.506,23.043.419,6.506a1.488,1.488,0,0,0,1.452,1.452,1.473,1.473,0,0,0,1.451-1.452L317.6,241.971l-.422-6.5a1.452,1.452,0,1,0-2.9,0Z" transform="translate(-197.111 -146.782)" fill="#0a1045"/>
        <path id="Path_248" data-name="Path 248" d="M331.367,249.4l-11.051,15.134a1.458,1.458,0,0,0,.519,1.987,1.493,1.493,0,0,0,1.987-.519l11.054-15.137a1.459,1.459,0,0,0-.523-1.987,1.5,1.5,0,0,0-1.987.523" transform="translate(-200.783 -155.991)" fill="#0a1045"/>
        <path id="Path_249" data-name="Path 249" d="M328.781,297.276l-6.851-9.325a1.494,1.494,0,0,0-1.984-.52,1.468,1.468,0,0,0-.523,1.987l6.864,9.321a1.5,1.5,0,0,0,1.984.523,1.467,1.467,0,0,0,.523-1.987Z" transform="translate(-200.219 -180.161)" fill="#0a1045"/>
        <path id="Path_250" data-name="Path 250" d="M354.783,281.366l-.274,8.551a1.464,1.464,0,0,0,1.451,1.452,1.484,1.484,0,0,0,1.452-1.452l.274-8.551a1.465,1.465,0,0,0-1.452-1.452,1.484,1.484,0,0,0-1.452,1.452" transform="translate(-222.36 -175.571)" fill="#0a1045"/>
        <path id="Path_251" data-name="Path 251" d="M357.864,273.168a1.452,1.452,0,1,0-1.452-1.452,1.468,1.468,0,0,0,1.452,1.452" transform="translate(-223.554 -169.519)" fill="#00c2d1"/>
        <path id="Path_252" data-name="Path 252" d="M381.54,265.02l.261,15.044a1.451,1.451,0,1,0,2.9,0l-.261-15.044a1.452,1.452,0,1,0-2.9,0" transform="translate(-239.315 -165.319)" fill="#0a1045"/>
        <path id="Path_253" data-name="Path 253" d="M377.522,283.728a12.325,12.325,0,0,1,1.764-.939c-.274.116.226-.084.274-.1l.377-.132q.484-.159.968-.28c.322-.081.645-.145.968-.2.032,0,.465-.058.145-.022l.529-.055a12.658,12.658,0,0,1,2,0A1.454,1.454,0,0,0,386,280.545a1.49,1.49,0,0,0-1.451-1.452,13.9,13.9,0,0,0-8.5,2.119,1.451,1.451,0,1,0,1.43,2.526l.035-.02Z" transform="translate(-235.41 -175.031)" fill="#0a1045"/>
        <path id="Path_254" data-name="Path 254" d="M411.072,283.412a10.73,10.73,0,0,0-4.574.558,6.185,6.185,0,0,0-3.29,2.79,4.816,4.816,0,0,0-.058,4.313,4.138,4.138,0,0,0,3.764,2.219,8.22,8.22,0,0,0,4.7-1.971,1.5,1.5,0,0,0,.519-1.987,1.468,1.468,0,0,0-1.987-.519,16.919,16.919,0,0,1-1.471,1c-.135.081-.274.155-.416.225l-.158.078c-.042.019-.274.113-.1.045s-.022,0-.045,0l-.216.074c-.135.042-.274.078-.413.107a1.113,1.113,0,0,1-.213.035c.035,0,.342-.023.068-.016h-.587c-.164,0,.116,0,.123.019a2.65,2.65,0,0,0-.455-.12c-.158-.035.1.029.1.048s-.161-.081-.187-.094-.365-.232-.18-.11-.071-.087-.116-.132c-.18-.171.058.052.055.087,0-.035-.11-.155-.129-.187s-.123-.274-.152-.277c.019,0,.126.345.042.1a.515.515,0,0,0-.042-.132c-.032-.1-.055-.206-.081-.322-.061-.242.019.081,0,.113a.787.787,0,0,0-.019-.229,2.705,2.705,0,0,1,0-.322,1.127,1.127,0,0,0,0-.187c.016.022-.068.368,0,.113.023-.107.045-.21.074-.323l.045-.132c.087-.287-.106.19,0,.029.055-.1.1-.21.165-.323s.2-.239.219-.322c0,0-.177.21-.071.1.048-.049.087-.1.132-.152s.187-.193.287-.284.106-.087.155-.132c.116-.107-.084.071-.094.071.084,0,.258-.181.322-.229.226-.142.513-.226.723-.381,0,0-.261.1-.113.051l.261-.094c.155-.051.322-.1.471-.135s.361-.084.542-.113a1.171,1.171,0,0,1,.184-.032h.042a13.848,13.848,0,0,1,2.161-.026,1.457,1.457,0,0,0,1.451-1.452,1.48,1.48,0,0,0-1.451-1.451Z" transform="translate(-252.567 -177.747)" fill="#0a1045"/>
        <path id="Path_255" data-name="Path 255" d="M435.035,256.365l-.968,17.914a1.458,1.458,0,0,0,2.851.387,28.48,28.48,0,0,1,1.11-3.7q.155-.409.322-.813c.064-.155,0-.019,0,0l.116-.268.209-.465q.4-.861.851-1.693a7.056,7.056,0,0,1,.416-.687c-.142.2,0,.022.077-.061s.168-.106.026-.026c-.21.116.209-.055-.039.023s.206.029-.052.026a1.8,1.8,0,0,1-.261,0c.249.042-.193-.11.019.022-.2-.122-.1-.055,0,.058,0,0-.132-.21-.064-.074.042.084.1.158.145.242s.1.2.148.3c-.129-.277,0,.019.038.136.12.322.229.645.323.993a16.344,16.344,0,0,1,.442,1.887c.035.193.068.39.094.59-.029-.219.023.21.029.281.035.371.061.742.074,1.116a17.84,17.84,0,0,1-.068,2.235,1.456,1.456,0,0,0,1.452,1.451,1.493,1.493,0,0,0,1.452-1.451,18.939,18.939,0,0,0-.194-4.774,17.421,17.421,0,0,0-.526-2.258,9.623,9.623,0,0,0-.819-2.08,3.04,3.04,0,0,0-1.848-1.49,2.651,2.651,0,0,0-2.525.822,7.81,7.81,0,0,0-1.177,1.832q-.5.967-.923,1.98a30.376,30.376,0,0,0-1.661,5.061l2.851.384.968-17.914a1.464,1.464,0,0,0-1.452-1.452,1.484,1.484,0,0,0-1.452,1.452Z" transform="translate(-272.26 -159.886)" fill="#0a1045"/>
        <path id="Path_256" data-name="Path 256" d="M468.667,287.357a5.374,5.374,0,0,0,3.035-1.21,3.064,3.064,0,0,0,.929-3.013c-.551-1.99-3-2.806-4.8-2.119-3.835,1.455-4.887,7.042-2.116,9.964a4.879,4.879,0,0,0,5.9.9,1.452,1.452,0,1,0-1.468-2.506c-.094.058-.471.2-.142.1-.123.035-.239.081-.365.11-.358.084.216,0-.151.023h-.439c-.206,0,.258.058.058,0a.875.875,0,0,1-.22-.045c-.126-.029-.248-.071-.371-.11-.252-.08,0,0,.035.016l-.2-.1c-.132-.071-.252-.158-.378-.235.274.168-.051-.048-.132-.129s-.322-.394-.158-.155c-.081-.116-.158-.232-.229-.355-.042-.071-.081-.142-.116-.216s-.116-.323-.026-.042c-.087-.271-.167-.539-.229-.819s0-.038,0,.019c0-.081-.016-.164-.022-.245v-.555a3.954,3.954,0,0,1,.032-.432c-.032.342.035-.148.052-.223.032-.136.067-.268.11-.4.022-.074.049-.148.074-.223.051-.139.1-.213,0-.032a5.585,5.585,0,0,1,.439-.767l.1-.145c-.177.235-.051.068,0,.022.12-.126.236-.252.365-.368.035-.032.232-.174.078-.068s0,0,.035-.019l.394-.226c-.045.026-.284.1-.032.016.071-.023.142-.048.216-.068s.116-.023.168-.042c.171-.058-.277,0,0,0h.207c.213-.016-.039-.042-.078-.022.058-.029.3.071.352.087s.223.129.068.019-.023,0,0,0a1.32,1.32,0,0,1,.174.107c-.145-.119-.177-.145-.1-.074a.668.668,0,0,1,.071.065c.039.035.2.187.048.035s.074.071.042.09-.116-.351-.042-.08,0-.229,0-.048.029-.1.029-.106a.97.97,0,0,1-.042.168c-.032.1-.019.074.039-.081a.879.879,0,0,0-.09.148c-.061.129.161-.142-.029.026-.058.051-.113.11-.174.161.155-.126.074-.065-.048,0a1.876,1.876,0,0,1-.177.094c.232-.11-.161.045-.181.052a8.848,8.848,0,0,1-1.261.235,1.454,1.454,0,0,0-1.013,1.787,1.5,1.5,0,0,0,1.787,1.013Z" transform="translate(-291.132 -176.112)" fill="#0a1045"/>
        <path id="Path_257" data-name="Path 257" d="M497.263,283.982l.023,8.909h2.9a14.646,14.646,0,0,1-.032-1.767,7.5,7.5,0,0,1,.068-.845.67.67,0,0,1,.023-.21c0,.029-.032.207,0,.035s.052-.322.084-.487a13.753,13.753,0,0,1,.432-1.713c.087-.268.181-.535.284-.8l.077-.2c0,.029-.077.174,0,.022s.136-.3.207-.451a7.4,7.4,0,0,1,.378-.713c.051-.081.225-.294.067-.116.1-.11.21-.207.3-.322s-.181.084,0,0a1,1,0,0,0,.152-.087s-.245.1-.091.048-.107,0-.119,0-.287-.055-.119,0-.08-.029-.094-.035-.213-.184-.1-.071-.19-.168-.045-.058a.432.432,0,0,1,.072.135s-.062-.268-.052-.1a2.2,2.2,0,0,0,.078.322.738.738,0,0,0,.029.161s-.02-.284,0-.116.025.323.042.474l.167,1.981.381,4.516a1.452,1.452,0,0,0,2.9,0l-.4-4.751c-.065-.755-.11-1.516-.194-2.258a3.969,3.969,0,0,0-.7-2.077,2.475,2.475,0,0,0-2.5-.923,3.426,3.426,0,0,0-1.935,1.365,11.347,11.347,0,0,0-1.777,4.032,15.163,15.163,0,0,0-.458,5.012,1.452,1.452,0,1,0,2.9,0l-.023-8.909a1.451,1.451,0,1,0-2.9,0Z" transform="translate(-311.9 -177.153)" fill="#0a1045"/>
      </g>
    </g>
    <path id="Rectangle_136" data-name="Rectangle 136" d="M0,0H264a0,0,0,0,1,0,0V6a10,10,0,0,1-10,10H10A10,10,0,0,1,0,6V0A0,0,0,0,1,0,0Z" transform="translate(160 4130)" fill="#0a1045"/>
  </g>
</svg>
