<svg xmlns="http://www.w3.org/2000/svg" xmlns:xlink="http://www.w3.org/1999/xlink" width="264" height="140.47" viewBox="0 0 264 140.47">
  <defs>
    <clipPath id="clip-path">
      <rect id="Rectangle_116" data-name="Rectangle 116" width="264" height="140.47" fill="none"/>
    </clipPath>
  </defs>
  <g id="Group_104" data-name="Group 104" transform="translate(0 9.019)">
    <g id="Group_103" data-name="Group 103" transform="translate(0 -9.019)">
      <g id="Group_102" data-name="Group 102" clip-path="url(#clip-path)">
        <path id="Path_285" data-name="Path 285" d="M36.575,81.965a2.686,2.686,0,0,1-1.893-1.254,2.448,2.448,0,0,1-.171-2.19l6.354-15.613h0a2.725,2.725,0,0,1,3.469-1.458,2.518,2.518,0,0,1,1.53,3.305L40.7,77.432l14.086,2.208A2.571,2.571,0,0,1,57,82.575a2.67,2.67,0,0,1-3.081,2.106ZM76.61,71.91h0a2.807,2.807,0,0,0,2.052-.043,2.612,2.612,0,0,0,1.418-1.413L86.435,54.84h0a2.448,2.448,0,0,0-.171-2.19A2.685,2.685,0,0,0,84.371,51.4L67.025,48.675h0a2.783,2.783,0,0,0-2,.445,2.542,2.542,0,0,0-1.083,1.661,2.571,2.571,0,0,0,2.21,2.934l14.085,2.207L75.078,68.6a2.443,2.443,0,0,0,.045,1.958,2.628,2.628,0,0,0,1.487,1.351Zm-14,8.5h0a2.575,2.575,0,0,0,2.257-2.9L61.376,55.1a2.668,2.668,0,0,0-3.04-2.113,2.578,2.578,0,0,0-2.264,2.863l3.5,22.412a2.537,2.537,0,0,0,1.056,1.676,2.782,2.782,0,0,0,1.991.474ZM80.929,13.243l28.364,47.315a12.255,12.255,0,0,1,1.285,9.695,12.9,12.9,0,0,1-6.279,7.727l-55.881,30.4A14.014,14.014,0,0,1,38.24,109.6a13.351,13.351,0,0,1-8.112-5.981L1.764,56.3a12.235,12.235,0,0,1-1.29-9.7,12.877,12.877,0,0,1,6.284-7.726l55.881-30.4A13.992,13.992,0,0,1,72.818,7.257a13.328,13.328,0,0,1,8.111,5.986m1.8,13.3L12.873,64.535l21.911,36.551a8.008,8.008,0,0,0,4.868,3.587,8.407,8.407,0,0,0,6.106-.733l55.881-30.4a7.737,7.737,0,0,0,3.766-4.637,7.353,7.353,0,0,0-.77-5.816Z" transform="translate(0 -4.909)"/>
        <path id="Path_286" data-name="Path 286" d="M633.374,48.023,606.149,95.942a13.31,13.31,0,0,1-7.967,6.156,14.021,14.021,0,0,1-10.2-1L531.385,71.919a12.937,12.937,0,0,1-6.462-7.589,12.246,12.246,0,0,1,1.053-9.72L553.2,6.692A13.289,13.289,0,0,1,561.166.531a14,14,0,0,1,10.206,1.008l56.593,29.175a12.917,12.917,0,0,1,6.468,7.588,12.228,12.228,0,0,1-1.058,9.722m-10.91,8.47L551.723,20.024,530.692,57.041a7.347,7.347,0,0,0-.63,5.831,7.761,7.761,0,0,0,3.876,4.554L590.53,96.6a8.415,8.415,0,0,0,6.122.6,7.987,7.987,0,0,0,4.781-3.692Z" transform="translate(-370.99 0)"/>
        <path id="Path_287" data-name="Path 287" d="M482.425,306.468l-5.98,1.526-4.38,4.172-1.6,5.7,1.6,5.7,4.377,4.172,5.982,1.526,5.98-1.525,4.377-4.172,1.6-5.7-1.6-5.694L488.4,308Z" transform="translate(-332.854 -221.08)" fill="#fcee21"/>
        <path id="Path_288" data-name="Path 288" d="M492.651,404.484v20.061l10.385-.016V404.6Z" transform="translate(-348.553 -291.787)" fill="#fcee21"/>
        <path id="Path_289" data-name="Path 289" d="M304.158,22.569h85.175V134.908h-13.1v-7.841l.788-2.329,4.483-7.4v-8.544l-4.483-7.4-7.769-4.271-7.76,2.227-6.909,2.319-2.453,5.438.676,5.957v4.8l.933,13.62-.437,3.423H304.158Z" transform="translate(-215.193 -16.281)" fill="#00c2d1"/>
        <path id="Path_290" data-name="Path 290" d="M425.571,73.61H402.64a3.124,3.124,0,1,1,0-6.241h22.931a3.124,3.124,0,1,1,0,6.241" transform="translate(-282.552 -48.599)"/>
        <path id="Path_291" data-name="Path 291" d="M400,135.21H341.038a3.124,3.124,0,1,1,0-6.241H400a3.124,3.124,0,1,1,0,6.241" transform="translate(-238.968 -93.036)"/>
        <path id="Path_292" data-name="Path 292" d="M400,180.01H341.038a3.124,3.124,0,1,1,0-6.24H400a3.124,3.124,0,1,1,0,6.24" transform="translate(-238.968 -125.354)"/>
        <path id="Path_293" data-name="Path 293" d="M367.244,224.81H341.036a3.124,3.124,0,1,1,0-6.241h26.208a3.124,3.124,0,1,1,0,6.241" transform="translate(-238.967 -157.672)"/>
        <path id="Path_294" data-name="Path 294" d="M359.057,320.009h-4.914s-4.125-5.221-4.235-5.326a3.391,3.391,0,0,0-4.632,0l-6.551,6.241a3.015,3.015,0,0,0,0,4.412,3.389,3.389,0,0,0,4.631,0l3.88-3.7,2.65,3.363a.028.028,0,0,1,.007-.011,3.31,3.31,0,0,0,2.613,1.258h6.551a3.124,3.124,0,1,0,0-6.241Z" transform="translate(-238.97 -226.347)"/>
        <path id="Path_295" data-name="Path 295" d="M376.764.167H285.038a3.2,3.2,0,0,0-3.276,3.12v118.58a3.2,3.2,0,0,0,3.276,3.12h52.415V137.47a3.08,3.08,0,0,0,1.44,2.584,3.424,3.424,0,0,0,3.053.313l6.974-2.657,6.973,2.657a3.417,3.417,0,0,0,3.053-.313,3.08,3.08,0,0,0,1.44-2.584V124.988h16.38a3.2,3.2,0,0,0,3.276-3.12V3.287a3.2,3.2,0,0,0-3.276-3.12ZM338.936,92.883l-.377-1.677,1.714-.528a3.2,3.2,0,0,0,2.111-2.011l.554-1.632,1.76.359a3.393,3.393,0,0,0,2.886-.737l1.334-1.148,1.333,1.15a3.39,3.39,0,0,0,2.886.737l1.761-.359.554,1.632a3.2,3.2,0,0,0,2.111,2.011l1.714.528-.377,1.677a3.011,3.011,0,0,0,.773,2.749L360.88,96.9l-1.207,1.27a3.02,3.02,0,0,0-.774,2.749l.377,1.677-1.714.528a3.2,3.2,0,0,0-2.112,2.011l-.552,1.633-1.761-.36a3.393,3.393,0,0,0-2.89.738l-1.33,1.147-1.332-1.148a3.37,3.37,0,0,0-2.2-.809,3.451,3.451,0,0,0-.69.071l-1.761.36-.552-1.633a3.2,3.2,0,0,0-2.111-2.011l-1.714-.528.377-1.677a3.011,3.011,0,0,0-.774-2.749L336.956,96.9l1.208-1.27A3.013,3.013,0,0,0,338.936,92.883Zm11.2,38.569a3.429,3.429,0,0,0-2.434,0l-3.7,1.41V112.935l.429-.089,2.286,1.972a3.393,3.393,0,0,0,4.4,0l2.286-1.972.427.089v19.927Zm23.353-12.7h-13.1v-7.841l.788-2.329,2.936-.9a3.1,3.1,0,0,0,2.2-3.624l-.649-2.874L367.726,99a3.017,3.017,0,0,0,0-4.188l-2.07-2.178.649-2.874a3.1,3.1,0,0,0-2.2-3.624l-2.936-.9-.947-2.8a3.29,3.29,0,0,0-3.8-2.092l-3.017.618-2.286-1.972a3.4,3.4,0,0,0-4.4,0l-2.286,1.972-3.017-.618a3.294,3.294,0,0,0-3.8,2.092l-.947,2.8-2.936.9a3.1,3.1,0,0,0-2.2,3.624l.649,2.874-2.069,2.178a3.012,3.012,0,0,0,0,4.188l2.069,2.178-.649,2.874a3.1,3.1,0,0,0,2.2,3.624l2.936.9.787,2.329v7.841H288.312V6.409h85.175Z" transform="translate(-199.348 -0.12)"/>
        <path id="Path_296" data-name="Path 296" d="M646.612,183.359l-3.186-1.608c-2.155-1.088-3.235-3.2-1.549-6.229l2.787-5.009c1.006-1.808-1.4-3.283-2.159-3.665l1.848-3.321c.756.381,3.39,1.452,4.395-.354l2.8-5.038c1.685-3.028,4.021-3.379,6.265-2.247L661,157.5l-1.847,3.32-1.486-.75c-1.85-.934-2.575.079-3.013.866l-2.609,4.69c-1.534,2.7-3.377,2.025-4.719,1.5l-.031.055c1.226.734,2.843,1.812,1.362,4.535l-2.625,4.717c-.438.787-.911,1.927.939,2.861l1.486.75Z" transform="translate(-453.546 -112.025)"/>
        <path id="Path_297" data-name="Path 297" d="M708.071,181.015l3.277,1.654c2.063,1.042,3.142,3.156,1.459,6.182l-2.787,5.01c-1,1.806,1.312,3.235,2.164,3.665l-1.848,3.322c-.851-.43-3.393-1.455-4.4.354l-2.8,5.038c-1.685,3.028-4.019,3.381-6.263,2.248l-3.188-1.609,1.847-3.32,1.487.751c1.852.935,2.572-.081,3.009-.867l2.611-4.692c1.537-2.693,3.379-2.023,4.721-1.5l.031-.055c-1.227-.735-2.843-1.812-1.365-4.536l2.625-4.718c.438-.787.916-1.924-.936-2.859l-1.487-.751Z" transform="translate(-490.783 -130.581)"/>
      </g>
    </g>
  </g>
</svg>
