<svg xmlns="http://www.w3.org/2000/svg" width="1921" height="252.075" viewBox="0 0 1921 252.075">
  <path id="Subtraction_10" data-name="Subtraction 10" d="M6329.45-2645.424h-.01a186.784,186.784,0,0,1-23.451-1.517,218.716,218.716,0,0,1-22.878-4.19c-7.2-1.708-14.641-3.838-22.126-6.332-6.865-2.286-13.994-4.955-21.19-7.933-27.537-11.4-52.029-25.619-71.708-37.041l-.024-.014-.009-.005c-15.607-9.06-27.935-16.216-36.327-18.824-1.731-.538-3.644-1.147-6.168-1.954l-.1-.033-.008,0c-23.728-7.579-73.1-23.349-123.462-23.349a212.013,212.013,0,0,0-28.046,1.791,162.869,162.869,0,0,0-27.29,6,130.51,130.51,0,0,0-25.58,11.124,116.373,116.373,0,0,0-22.913,17.184,106.83,106.83,0,0,1-14.97,11.943,142.9,142.9,0,0,1-18.1,10.141,228.287,228.287,0,0,1-44.738,15.133c-32.2,7.618-71.81,11.482-117.724,11.484-42.055,0-89.257-3.229-140.295-9.6-48.606-6.069-100.055-14.9-152.917-26.247-40.351-8.658-75.978-17.166-108.916-26.01-27.6-7.408-47.912-13.632-62.744-18.177l-.093-.028-.107-.033-.008,0c-21.777-6.677-33.772-10.354-44.071-10.354-7.527,0-14.374,1.874-25.262,6.916-5.854,2.709-13.7,7.024-23.64,12.487l-.136.075-.016.009c-20.648,11.351-48.927,26.9-80.617,39.625-8.3,3.332-16.488,6.329-24.335,8.908-8.6,2.824-17.083,5.24-25.2,7.18a251.6,251.6,0,0,1-25.657,4.8,198.453,198.453,0,0,1-25.709,1.747,162.017,162.017,0,0,1-22.1-1.477,139.339,139.339,0,0,1-21.571-4.725,127.461,127.461,0,0,1-20.768-8.407,127.44,127.44,0,0,1-19.705-12.529c-16.649-12.852-30.925-21.923-43.641-27.731-12.081-5.519-23.041-8.2-33.508-8.2-9.93,0-19.778,2.374-30.993,7.472-10.265,4.666-20.744,11.126-32.877,18.607l-.017.01-.028.016c-10.956,6.756-23.373,14.414-37.87,22.054-9.99,5.264-19.746,9.889-29.825,14.137V-2897.5H6591V-2730.1c-8.593,3.553-17.142,7.056-25.407,10.41-38.94,15.806-74.274,29.437-105.021,40.514-38.424,13.845-69.737,23.712-93.069,29.327a158.929,158.929,0,0,1-19.1,3.369A167.987,167.987,0,0,1,6329.45-2645.424Z" transform="translate(-4669.999 2897.5)" fill="#f7f7f7"/>
</svg>
