<svg id="Group_8" data-name="Group 8" xmlns="http://www.w3.org/2000/svg" xmlns:xlink="http://www.w3.org/1999/xlink" width="395.508" height="126.513" viewBox="0 0 395.508 126.513">
  <defs>
    <clipPath id="clip-path">
      <rect id="Rectangle_4" data-name="Rectangle 4" width="395.508" height="126.513" fill="none"/>
    </clipPath>
  </defs>
  <g id="Group_7" data-name="Group 7" clip-path="url(#clip-path)">
    <path id="Path_26" data-name="Path 26" d="M17.448,66.12c.076,1.7.011-.075.012-.467,0-.515.013-1.029.037-1.543q.068-1.513.265-3.017a34.753,34.753,0,0,1,1.217-5.606c.143-.465.312-.921.455-1.386.274-.889-.555,1.309.024-.051.38-.9.761-1.785,1.195-2.656a40.552,40.552,0,0,1,3-5.052c.253-.362.52-.715.773-1.076.72-1.024-.933,1.161-.374.478.14-.172.274-.35.414-.524q1.005-1.25,2.089-2.433a57.855,57.855,0,0,1,4.325-4.239c.4-.352.8-.695,1.206-1.04.938-.805-1.625,1.31-.165.144q1.272-1.017,2.589-1.975,2.7-1.965,5.543-3.711,1.292-.795,2.6-1.549c.276-.159.555-.312.831-.472.872-.5-1.823.991-.932.517.567-.3,1.129-.612,1.7-.911q3.026-1.592,6.139-3.008,3.25-1.485,6.572-2.8,1.579-.63,3.173-1.224c.562-.21,1.128-.415,1.691-.622.6-.219,1.624-.555-1.129.4.379-.131.758-.266,1.136-.4A206.777,206.777,0,0,1,88.5,14.707c1.026-.207,2.055-.4,3.084-.6,1.148-.219-2.572.466-.573.107.589-.1,1.176-.208,1.767-.309q3.069-.525,6.154-.962c3.587-.507,7.19-.923,10.8-1.214q2.509-.2,5.023-.313c.495-.021.987-.039,1.481-.054.343-.011,2.533-.057.783-.027s.482,0,.824,0q.984,0,1.967.009a120.462,120.462,0,0,1,14.441,1.017q.841.112,1.684.238c.351.053.7.116,1.053.164.966.131-1.668-.306-.711-.122,1.328.254,2.657.49,3.978.779,2.419.53,4.817,1.161,7.178,1.915q1.7.542,3.368,1.171c.515.195,1.026.446,1.55.61-2-.625.136.08.64.311a49.945,49.945,0,0,1,6.414,3.516q1.422.927,2.767,1.965c.211.163.414.333.625.493.7.53-1.13-1.008-.14-.1.439.4.887.788,1.317,1.2a34.281,34.281,0,0,1,4.506,5.249,35.544,35.544,0,0,1,1.894,3.085c-.6-1.091.02.075.239.548.289.631.561,1.271.811,1.919a35.787,35.787,0,0,1,1.978,7.512c.179,1.17.3,2.347.382,3.528.019.3.034.6.049.9-.056-1.223-.011-.177-.012.131,0,.761,0,1.521-.031,2.282a55.074,55.074,0,0,1-.926,8.128,65.09,65.09,0,0,1-2.186,8.393c-.205.618-.431,1.229-.642,1.844.446-1.3-.186.463-.332.82q-.873,2.16-1.886,4.259a70.319,70.319,0,0,1-4.17,7.453q-1.173,1.824-2.463,3.57c-.186.253-.4.5-.572.765.1-.153.966-1.217.2-.28-.5.609-.993,1.219-1.509,1.815q-1.29,1.5-2.685,2.9a40.617,40.617,0,0,0-3.168,2.935c.069-.087,1.517-1.206.511-.422-.233.182-.464.368-.7.549q-.7.536-1.415,1.045-.795.565-1.619,1.091c-.345.222-2.517,1.473-1.048.668s-.422.2-.711.343c-.6.293-1.2.567-1.816.829q-.864.372-1.744.71c-.287.111-.584.207-.869.325,2.669-1.1,1.209-.429.528-.213q-1.794.572-3.636.986a4.322,4.322,0,0,1-1.053.222c-.032,0,2.508-.4,1.108-.213-.684.093-1.365.2-2.054.269-.535.053-1.072.1-1.608.122-2.062.105,1.6.05.254,0-.571-.022-1.14-.035-1.711-.08-.38-.029-2.543-.356-1.026-.075s-.47-.114-.765-.187c-.452-.112-.9-.238-1.341-.381-.213-.069-.431-.162-.648-.222-.994-.279.644.209.7.3-.149-.27-1.209-.573-1.493-.73q-.644-.357-1.251-.773c-.177-.121-.342-.274-.527-.379-.671-.38,1.146,1.087.329.28a18.653,18.653,0,0,1-1.973-2.147c-.264-.355-.495-.73-.738-1.1-.834-1.256.268.82-.188-.371a23.1,23.1,0,0,1-1.015-3.071,30.787,30.787,0,0,1-.471-3.321c.163,1.361.007-.281.016-.695q.028-1.147.148-2.29a40.452,40.452,0,0,1,1.879-8.507,5.49,5.49,0,0,0,.51-1.463c.069.857-.387.982-.064.213.1-.234.192-.47.291-.7q.7-1.643,1.532-3.222A46.387,46.387,0,0,1,133.2,64.2c.932-1.3-.989,1.19.033-.035.351-.419.692-.843,1.051-1.255q1.074-1.236,2.235-2.391,1.1-1.1,2.268-2.118c.23-.2.476-.387.694-.6-.009.009-1.627,1.31-.694.574.482-.381.963-.764,1.454-1.134a58.272,58.272,0,0,1,5.434-3.62c.594-.351,2.6-1.369-.127.045.452-.234.894-.483,1.346-.718q1.536-.8,3.112-1.52,1.595-.732,3.22-1.392.728-.3,1.462-.579c.3-.118,1.726-.429,1.853-.69,0,0-2.411.834-1.136.406.252-.084.5-.172.755-.257q.854-.287,1.713-.557,1.733-.546,3.483-1.029,3.449-.954,6.952-1.689.909-.192,1.819-.37a5.884,5.884,0,0,1,1.015-.2c.026,0-2.515.449-1.138.212,1.227-.212,2.455-.421,3.686-.608,4.866-.737,9.769-1.23,14.681-1.528q3.591-.219,7.185-.3c2.16-.05-1.842.016.019,0,.539,0,1.076-.011,1.615-.013q1.9-.009,3.8.018,6.679.093,13.347.6,6.327.481,12.619,1.351,2.118.3,4.226.637c.351.057.711.106,1.061.174-1.887-.37-.589-.1-.115-.013q1.332.236,2.662.487,4.707.894,9.37,2,9.648,2.28,19.069,5.408,4.7,1.559,9.328,3.321c1.591.607,3.173,1.238,4.755,1.873.264.106,1.211.505-.062-.028l1.049.439q1.311.554,2.614,1.123a202.63,202.63,0,0,1,35.05,19.506q3.988,2.79,7.819,5.8c.652.513,1.3,1.035,1.945,1.552.155.125.9.732.074.055.283.233.565.469.846.7q1.892,1.587,3.733,3.233c4.661,4.17,8.923,8.727,13.317,13.17a50.8,50.8,0,0,1,5.78,6.646c.431.621.836,1.26,1.207,1.919-.554-.984.286.685.387.942a14.647,14.647,0,0,1,.966,4.281c.115,1.519,2.365,2.615,3.521,2.955a12.5,12.5,0,0,0,6.551-.14c3.53-1.047,7.63-3.3,7.314-7.474-.508-6.73-5.532-12.169-10.056-16.722-4.608-4.638-9.061-9.391-13.979-13.712a188.267,188.267,0,0,0-35.007-24.222A228.771,228.771,0,0,0,230.542,33.2a201.676,201.676,0,0,0-61.75,1.51c-20.5,3.829-42.49,12.737-53.949,31.192a48.681,48.681,0,0,0-5.955,14.691c-1.217,5.3-1.605,11.506.606,16.6,4.777,11.017,17.589,13.7,28.5,12.277A56.59,56.59,0,0,0,172.934,91.1a74.236,74.236,0,0,0,17.151-33.678c2.438-11.473,1.567-23.658-4.8-33.735C179.424,14.4,169.322,8.7,159.18,5.228c-18.446-6.32-39-6.152-58.117-3.467C81,4.579,60.827,9.637,42.4,18.19,25.15,26.2,6.929,38.473,1.341,57.712A39.88,39.88,0,0,0,.062,70.779c.066,1.506,2.41,2.628,3.52,2.955a12.5,12.5,0,0,0,6.551-.14c3.636-1.079,7.5-3.278,7.315-7.474" fill="#00c2d1"/>
    <path id="Path_27" data-name="Path 27" d="M319.219,113.464c.145,0-2.013.014-1.1.031.288.006.576,0,.864,0q.629.007,1.256.032c.987.04,1.973.111,2.954.223a4.962,4.962,0,0,0,1.117.145c.124-.018-1.825-.317-1.063-.171.237.045.475.084.712.13q1.218.237,2.416.561,1.094.3,2.168.66.579.195,1.152.409c.165.061.328.125.493.186.861.322-.49-.212-.647-.263a36.825,36.825,0,0,1,4.724,2.16c2.566,1.265,5.11,2.559,7.57,4.018a41,41,0,0,0,8.748,4.127,18.841,18.841,0,0,0,15.707-2.264,16.49,16.49,0,0,0,5.41-6.4c2.474-4.937,3.907-10.436,5.271-15.762,1.306-5.1,2.236-10.434,4.119-15.365q-.277.719-.554,1.438c3.675-9.5,7.14-19.086,10.8-28.6l-.553,1.438q2.031-5.274,4.175-10.505c.6-1.45.933-2.768-.164-4.118-1.047-1.289-3.247-1.874-4.8-1.941a14.481,14.481,0,0,0-6.835,1.287c-1.624.786-3.85,1.951-4.575,3.708-5.194,12.6-9.722,25.463-14.616,38.181q.276-.718.554-1.438c-3.633,9.418-4.841,19.561-8.425,29q.276-.72.553-1.439a31.3,31.3,0,0,1-1.627,3.636c-.26.481-.554.935-.843,1.4-.587.94.342-.522.6-.722a5.024,5.024,0,0,0-.56.62c-.776.9,1.514-1.141.974-.769-1.057.729,2.272-1.1,1.274-.679a10.833,10.833,0,0,1,3.429-.952c-.889.092,2.391.068,1.49-.035-.207-.024-.423-.045-.632-.056,2.455.135,1.447.259.637.038-.376-.1-.74-.237-1.111-.354-.984-.311.835.33.785.329a2.615,2.615,0,0,1-.566-.242q-.642-.284-1.268-.6c-2.739-1.363-5.306-3.039-8.03-4.436a88.008,88.008,0,0,0-12.594-5.568c-5.637-1.85-11.477-2.17-17.359-2.04a13.843,13.843,0,0,0-6.563,2.3c-1.207.82-3.038,2.453-3.188,4.082-.394,4.277,4.721,4.638,7.733,4.572" fill="#00c2d1"/>
  </g>
</svg>
